<svg xmlns="http://www.w3.org/2000/svg" xmlns:xlink="http://www.w3.org/1999/xlink" viewBox="0 0 1152 648"><defs><clipPath id="a"><rect width="1.292" height="10.666" style="fill:none"/></clipPath><clipPath id="b"><rect width="1152" height="648" style="fill:none"/></clipPath><pattern id="c" width="1.292" height="10.666" patternTransform="matrix(-3.407, -3.993, -3.993, 3.407, 36796.172, 9625.966)" patternUnits="userSpaceOnUse" viewBox="0 0 1.292 10.666"><rect width="1.292" height="10.666" style="fill:none"/><g style="clip-path:url(#a)"><line x1="0.646" y1="12.709" x2="0.646" y2="-3.291" style="fill:none;stroke:#000;stroke-miterlimit:10;stroke-width:0.25px"/></g></pattern></defs><title>Artboard 1</title><g style="isolation:isolate"><g style="clip-path:url(#b)"><path d="M529.573,193.562S525.557,155.488,506.835,129,449.324,71.894,405.63,64.446,304.3,73.643,263.852,122.8C234.563,158.387,237.1,196.46,237.1,196.46" style="fill:#c7c8ca"/><path d="M228.616,209.232s-3.047,3.78-4.222,5.436c0,0-3.059,11.147,4.459,15.955,0,0,44.862,16.037,115.657,17.381s187.927-3.8,208.814-30.718-28.259-28.786-45.109-32.53-236.7-33.193-279.6,24.476" style="fill:#c7c8ca"/><path d="M530.6,235.821c28.815-16.915,4.1-35.533,4.1-35.533l.334-3.829c-5.459-3.934-23.407-10.348-23.407-10.348l-6.576,1.034c-32.1-10.241-63.867-13.55-111.349-15.413s-111.345,9-111.345,9l-5.686-1.475c-18.78,3.334-35.891,12.233-35.891,12.233l3.4,2.07a95.533,95.533,0,0,0-16.219,9.932c-7.353,5.793-3.562,11.176-3.562,11.176,6.023-10.967,26.529-19.657,26.529-19.657l-2.541-2.072a93.756,93.756,0,0,1,29.736-8.9l4.236,1.655c1.56-.829,31.2-5.379,43.024-6.624s72.221-2.273,83.149-2.066,58.626,5.794,70.214,8.069,26.536,7.658,26.536,7.658l6.9-1.244,17.2,7.238v4.054s2.876,1.073,9.214,6.918C538.6,209.7,548.823,220.305,530.6,235.821Z" style="fill:#c7c8ca"/><path d="M391.132,11.593c.5-7.489-4.961-9.059-8.7-8.987-3.743-.071-9.207,1.5-8.706,8.987s5.366,8.239,5.366,8.239v4.244c-4,1.248,0,5.992,0,5.992v7.242s-3.747.5-3.5,4.992,3.5,5.742,3.5,5.742v4a3.251,3.251,0,0,0-3.5,3.245c-.246,3.5,3.5,4.244,3.5,4.244v3.222s4.958-.009,6.68,0V59.527s3.741-.747,3.49-4.244a3.246,3.246,0,0,0-3.49-3.245v-4s3.264-1.248,3.5-5.742-3.5-4.992-3.5-4.992V30.067s4-4.744,0-5.992V19.832S390.631,19.083,391.132,11.593Zm-8.7,4.588a5.617,5.617,0,1,1,5.618-5.617A5.62,5.62,0,0,1,382.427,16.181Z" style="fill:#c7c8ca"/><polygon points="1148.81 80.137 1081.486 80.137 1081.486 99.09 985.356 99.09 985.356 142.886 935.293 142.886 935.293 73.735 765.527 73.735 765.527 120.024 667.176 120.024 667.176 191.065 612.669 191.065 612.669 161.859 530.273 161.859 460.136 161.859 460.136 174.012 405.153 174.012 405.153 151.062 405.153 111.763 312.43 111.763 312.43 158.041 223.033 158.041 223.033 82.358 125.555 82.358 28.881 82.358 28.881 112.243 -0.558 112.243 -0.558 435.498 1150.256 435.498 1148.81 80.137" style="fill:#c7c8ca"/><rect x="772.766" y="224.026" width="126.02" height="211.472" style="fill:#a7a9ac"/><rect x="783.258" y="236.049" width="30.455" height="41.859" style="fill:#bcbec0"/><rect x="820.547" y="236.049" width="30.457" height="41.859" style="fill:#bcbec0"/><rect x="856.728" y="236.049" width="30.457" height="41.859" style="fill:#bcbec0"/><rect x="783.258" y="289.71" width="30.455" height="41.861" style="fill:#bcbec0"/><rect x="820.547" y="289.71" width="30.457" height="41.861" style="fill:#bcbec0"/><rect x="856.728" y="289.71" width="30.457" height="41.861" style="fill:#bcbec0"/><rect x="783.258" y="344.893" width="30.455" height="41.861" style="fill:#bcbec0"/><rect x="820.547" y="344.893" width="30.457" height="41.861" style="fill:#bcbec0"/><rect x="856.728" y="344.893" width="30.457" height="41.861" style="fill:#bcbec0"/><rect x="786.363" y="239.769" width="10.832" height="33.691" style="fill:#a7a9ac"/><rect x="799.394" y="239.769" width="10.83" height="33.691" style="fill:#a7a9ac"/><rect x="823.846" y="239.769" width="10.83" height="33.691" style="fill:#a7a9ac"/><rect x="836.877" y="239.769" width="10.83" height="33.691" style="fill:#a7a9ac"/><rect x="859.779" y="239.769" width="10.832" height="33.691" style="fill:#a7a9ac"/><rect x="872.809" y="239.769" width="10.832" height="33.691" style="fill:#a7a9ac"/><rect x="786.363" y="292.491" width="10.832" height="33.693" style="fill:#a7a9ac"/><rect x="799.394" y="292.491" width="10.83" height="33.693" style="fill:#a7a9ac"/><rect x="823.846" y="292.491" width="10.83" height="33.693" style="fill:#a7a9ac"/><rect x="836.877" y="292.491" width="10.83" height="33.693" style="fill:#a7a9ac"/><rect x="859.779" y="292.491" width="10.832" height="33.693" style="fill:#a7a9ac"/><rect x="872.809" y="292.491" width="10.832" height="33.693" style="fill:#a7a9ac"/><rect x="786.363" y="347.943" width="10.832" height="33.691" style="fill:#a7a9ac"/><rect x="799.394" y="347.943" width="10.83" height="33.691" style="fill:#a7a9ac"/><rect x="823.846" y="347.943" width="10.83" height="33.691" style="fill:#a7a9ac"/><rect x="836.877" y="347.943" width="10.83" height="33.691" style="fill:#a7a9ac"/><rect x="859.779" y="347.943" width="10.832" height="33.691" style="fill:#a7a9ac"/><rect x="872.809" y="347.943" width="10.832" height="33.691" style="fill:#a7a9ac"/><rect x="772.736" y="224.026" width="126.049" height="7.569" style="fill:#a7a9ac"/><rect x="195.203" y="209.252" width="186.869" height="226.246" style="fill:#a7a9ac"/><rect x="205.833" y="222.114" width="45.164" height="44.786" style="fill:#bcbec0"/><rect x="266.055" y="222.114" width="45.162" height="44.786" style="fill:#bcbec0"/><rect x="326.277" y="222.114" width="45.161" height="44.786" style="fill:#bcbec0"/><rect x="205.833" y="279.525" width="45.164" height="44.786" style="fill:#bcbec0"/><rect x="266.055" y="279.525" width="45.162" height="44.786" style="fill:#bcbec0"/><rect x="326.277" y="279.525" width="45.161" height="44.786" style="fill:#bcbec0"/><rect x="205.833" y="338.565" width="45.164" height="44.785" style="fill:#bcbec0"/><rect x="266.055" y="338.565" width="45.162" height="44.785" style="fill:#bcbec0"/><rect x="326.277" y="338.565" width="45.161" height="44.785" style="fill:#bcbec0"/><rect x="898.336" y="222.918" width="136.879" height="212.58" style="fill:#a7a9ac"/><rect x="906.121" y="235.003" width="33.082" height="42.08" style="fill:#bcbec0"/><rect x="950.234" y="235.003" width="33.082" height="42.08" style="fill:#bcbec0"/><rect x="994.344" y="235.003" width="33.084" height="42.08" style="fill:#bcbec0"/><rect x="906.121" y="288.947" width="33.082" height="42.079" style="fill:#bcbec0"/><rect x="950.234" y="288.947" width="33.082" height="42.079" style="fill:#bcbec0"/><rect x="994.344" y="288.947" width="33.084" height="42.079" style="fill:#bcbec0"/><rect x="906.121" y="344.42" width="33.082" height="42.08" style="fill:#bcbec0"/><rect x="950.234" y="344.42" width="33.082" height="42.08" style="fill:#bcbec0"/><rect x="994.344" y="344.42" width="33.084" height="42.08" style="fill:#bcbec0"/><rect x="381.192" y="190.397" width="140.8" height="245.101" style="fill:#a7a9ac"/><rect x="409.952" y="191.386" width="86.577" height="244.112" style="fill:#bcbec0"/><rect x="430.473" y="205.333" width="44.635" height="18.874" style="fill:#a7a9ac"/><rect x="411.75" y="211.624" width="14.377" height="10.784" style="fill:#a7a9ac"/><rect x="479.454" y="211.624" width="14.377" height="10.784" style="fill:#a7a9ac"/><rect x="430.473" y="236.189" width="44.635" height="18.872" style="fill:#a7a9ac"/><rect x="411.75" y="242.48" width="14.377" height="10.784" style="fill:#a7a9ac"/><rect x="479.454" y="242.48" width="14.377" height="10.784" style="fill:#a7a9ac"/><rect x="430.473" y="266.296" width="44.635" height="18.874" style="fill:#a7a9ac"/><rect x="411.75" y="272.587" width="14.377" height="10.785" style="fill:#a7a9ac"/><rect x="479.454" y="272.587" width="14.377" height="10.785" style="fill:#a7a9ac"/><rect x="430.473" y="297.526" width="44.635" height="18.874" style="fill:#a7a9ac"/><rect x="411.75" y="303.818" width="14.377" height="10.785" style="fill:#a7a9ac"/><rect x="479.454" y="303.818" width="14.377" height="10.785" style="fill:#a7a9ac"/><rect x="434.517" y="225.554" width="15.502" height="5.019" style="fill:#a7a9ac"/><rect x="455.636" y="225.554" width="15.503" height="5.019" style="fill:#a7a9ac"/><rect x="434.517" y="256.634" width="15.502" height="5.018" style="fill:#a7a9ac"/><rect x="455.636" y="256.634" width="15.503" height="5.018" style="fill:#a7a9ac"/><rect x="434.517" y="286.517" width="15.502" height="5.019" style="fill:#a7a9ac"/><rect x="455.636" y="286.517" width="15.503" height="5.019" style="fill:#a7a9ac"/><rect x="434.517" y="317.749" width="15.502" height="5.019" style="fill:#a7a9ac"/><rect x="455.636" y="317.749" width="15.503" height="5.019" style="fill:#a7a9ac"/><rect x="430.473" y="328.469" width="44.635" height="18.873" style="fill:#a7a9ac"/><rect x="411.75" y="334.76" width="14.377" height="10.785" style="fill:#a7a9ac"/><rect x="479.454" y="334.76" width="14.377" height="10.785" style="fill:#a7a9ac"/><rect x="430.473" y="359.701" width="44.635" height="18.871" style="fill:#a7a9ac"/><rect x="411.75" y="365.992" width="14.377" height="10.785" style="fill:#a7a9ac"/><rect x="479.454" y="365.992" width="14.377" height="10.785" style="fill:#a7a9ac"/><rect x="434.517" y="348.69" width="15.502" height="5.017" style="fill:#a7a9ac"/><rect x="455.636" y="348.69" width="15.503" height="5.017" style="fill:#a7a9ac"/><rect x="434.517" y="379.92" width="15.502" height="5.018" style="fill:#a7a9ac"/><rect x="455.636" y="379.92" width="15.503" height="5.018" style="fill:#a7a9ac"/><rect x="376.875" y="187.234" width="149.726" height="9.229" style="fill:#a7a9ac"/><rect x="371.929" y="183.912" width="157.552" height="6.83" style="fill:#a7a9ac"/><rect x="430.092" y="391.801" width="42.615" height="43.697" style="fill:#a7a9ac"/><rect x="387.896" y="222.408" width="7.752" height="2.756" style="fill:#a7a9ac"/><rect x="391.771" y="219.653" width="7.752" height="2.755" style="fill:#a7a9ac"/><rect x="384.019" y="219.653" width="7.752" height="2.755" style="fill:#a7a9ac"/><rect x="396.064" y="216.897" width="7.75" height="2.756" style="fill:#a7a9ac"/><rect x="388.312" y="216.897" width="7.752" height="2.756" style="fill:#a7a9ac"/><rect x="392.188" y="214.142" width="7.751" height="2.755" style="fill:#a7a9ac"/><rect x="509.471" y="264.71" width="7.752" height="2.755" style="fill:#a7a9ac"/><rect x="505.595" y="267.466" width="7.751" height="2.756" style="fill:#a7a9ac"/><rect x="513.346" y="267.466" width="7.752" height="2.756" style="fill:#a7a9ac"/><rect x="509.055" y="270.222" width="7.751" height="2.756" style="fill:#a7a9ac"/><rect x="505.179" y="272.978" width="7.752" height="2.754" style="fill:#a7a9ac"/><rect x="392.188" y="225.164" width="7.751" height="2.755" style="fill:#a7a9ac"/><rect x="505.736" y="278.488" width="7.75" height="2.756" style="fill:#a7a9ac"/><rect x="501.859" y="281.244" width="7.751" height="2.755" style="fill:#a7a9ac"/><rect x="509.611" y="281.244" width="7.752" height="2.755" style="fill:#a7a9ac"/><rect x="497.568" y="284" width="7.752" height="2.756" style="fill:#a7a9ac"/><rect x="505.32" y="284" width="7.752" height="2.756" style="fill:#a7a9ac"/><rect x="501.443" y="286.755" width="7.752" height="2.756" style="fill:#a7a9ac"/><rect x="501.443" y="275.732" width="7.752" height="2.755" style="fill:#a7a9ac"/><rect x="384.019" y="233.124" width="7.752" height="2.756" style="fill:#a7a9ac"/><rect x="387.896" y="235.88" width="7.752" height="2.755" style="fill:#a7a9ac"/><rect x="1034.918" y="190.397" width="139.397" height="245.101" style="fill:#a7a9ac"/><rect x="1063.68" y="191.386" width="86.576" height="244.112" style="fill:#bcbec0"/><rect x="1084.199" y="205.333" width="44.635" height="18.874" style="fill:#a7a9ac"/><rect x="1065.477" y="211.624" width="14.377" height="10.784" style="fill:#a7a9ac"/><rect x="1133.18" y="211.624" width="14.379" height="10.784" style="fill:#a7a9ac"/><rect x="1084.199" y="236.189" width="44.635" height="18.872" style="fill:#a7a9ac"/><rect x="1065.477" y="242.48" width="14.377" height="10.784" style="fill:#a7a9ac"/><rect x="1133.18" y="242.48" width="14.379" height="10.784" style="fill:#a7a9ac"/><rect x="1084.199" y="266.296" width="44.635" height="18.874" style="fill:#a7a9ac"/><rect x="1065.477" y="272.587" width="14.377" height="10.785" style="fill:#a7a9ac"/><rect x="1133.18" y="272.587" width="14.379" height="10.785" style="fill:#a7a9ac"/><rect x="1084.199" y="297.526" width="44.635" height="18.874" style="fill:#a7a9ac"/><rect x="1065.477" y="303.818" width="14.377" height="10.785" style="fill:#a7a9ac"/><rect x="1133.18" y="303.818" width="14.379" height="10.785" style="fill:#a7a9ac"/><rect x="1088.244" y="225.554" width="15.502" height="5.019" style="fill:#a7a9ac"/><rect x="1109.363" y="225.554" width="15.504" height="5.019" style="fill:#a7a9ac"/><rect x="1088.244" y="256.634" width="15.502" height="5.018" style="fill:#a7a9ac"/><rect x="1109.363" y="256.634" width="15.504" height="5.018" style="fill:#a7a9ac"/><rect x="1088.244" y="286.517" width="15.502" height="5.019" style="fill:#a7a9ac"/><rect x="1109.363" y="286.517" width="15.504" height="5.019" style="fill:#a7a9ac"/><rect x="1088.244" y="317.749" width="15.502" height="5.019" style="fill:#a7a9ac"/><rect x="1109.363" y="317.749" width="15.504" height="5.019" style="fill:#a7a9ac"/><rect x="1084.199" y="328.469" width="44.635" height="18.873" style="fill:#a7a9ac"/><rect x="1065.477" y="334.76" width="14.377" height="10.785" style="fill:#a7a9ac"/><rect x="1133.18" y="334.76" width="14.379" height="10.785" style="fill:#a7a9ac"/><rect x="1084.199" y="359.701" width="44.635" height="18.871" style="fill:#a7a9ac"/><rect x="1065.477" y="365.992" width="14.377" height="10.785" style="fill:#a7a9ac"/><rect x="1133.18" y="365.992" width="14.379" height="10.785" style="fill:#a7a9ac"/><rect x="1088.244" y="348.69" width="15.502" height="5.017" style="fill:#a7a9ac"/><rect x="1109.363" y="348.69" width="15.504" height="5.017" style="fill:#a7a9ac"/><rect x="1088.244" y="379.92" width="15.502" height="5.018" style="fill:#a7a9ac"/><rect x="1109.363" y="379.92" width="15.504" height="5.018" style="fill:#a7a9ac"/><rect x="1030.602" y="187.234" width="143.713" height="9.229" style="fill:#a7a9ac"/><rect x="1025.656" y="183.912" width="148.658" height="6.83" style="fill:#a7a9ac"/><rect x="1083.816" y="391.801" width="42.617" height="43.697" style="fill:#a7a9ac"/><rect x="1041.623" y="222.408" width="7.752" height="2.756" style="fill:#a7a9ac"/><rect x="1045.498" y="219.653" width="7.752" height="2.755" style="fill:#a7a9ac"/><rect x="1037.746" y="219.653" width="7.752" height="2.755" style="fill:#a7a9ac"/><rect x="1049.791" y="216.897" width="7.75" height="2.756" style="fill:#a7a9ac"/><rect x="1042.037" y="216.897" width="7.754" height="2.756" style="fill:#a7a9ac"/><rect x="1045.914" y="214.142" width="7.752" height="2.755" style="fill:#a7a9ac"/><rect x="1045.914" y="225.164" width="7.752" height="2.755" style="fill:#a7a9ac"/><rect x="1151.295" y="284" width="7.752" height="2.756" style="fill:#a7a9ac"/><rect x="1037.746" y="233.124" width="7.752" height="2.756" style="fill:#a7a9ac"/><rect x="1041.623" y="235.88" width="7.752" height="2.755" style="fill:#a7a9ac"/><rect x="521.098" y="245.115" width="126.125" height="190.383" style="fill:#a7a9ac"/><rect x="529.699" y="320.328" width="9.222" height="6.743" style="fill:#bcbec0"/><rect x="529.24" y="380.543" width="9.22" height="6.74" style="fill:#bcbec0"/><rect x="528.777" y="349.088" width="9.221" height="6.74" style="fill:#bcbec0"/><rect x="529.24" y="258.317" width="9.22" height="6.741" style="fill:#bcbec0"/><rect x="529.24" y="289.324" width="9.22" height="6.739" style="fill:#bcbec0"/><rect x="628.096" y="320.328" width="9.221" height="6.743" style="fill:#bcbec0"/><rect x="627.635" y="380.543" width="9.223" height="6.74" style="fill:#bcbec0"/><rect x="627.174" y="349.088" width="9.223" height="6.74" style="fill:#bcbec0"/><rect x="627.635" y="258.317" width="9.223" height="6.741" style="fill:#bcbec0"/><rect x="627.635" y="289.324" width="9.223" height="6.739" style="fill:#bcbec0"/><rect x="521.098" y="241.7" width="126.125" height="6.829" style="fill:#a7a9ac"/><rect x="558.771" y="379.223" width="43.727" height="42.701" style="fill:#bcbec0"/><rect x="550.409" y="251.802" width="61.436" height="27.748" style="fill:#bcbec0"/><rect x="550.409" y="283.088" width="61.436" height="27.747" style="fill:#bcbec0"/><rect x="550.409" y="313.982" width="61.436" height="27.747" style="fill:#bcbec0"/><rect x="550.409" y="345.383" width="61.436" height="27.746" style="fill:#bcbec0"/><rect x="549.37" y="301.455" width="65.009" height="10.785" style="fill:#a7a9ac"/><rect x="574.73" y="303.703" width="15.75" height="4.943" style="fill:#bcbec0"/><rect x="547.989" y="332.908" width="65.009" height="10.787" style="fill:#a7a9ac"/><rect x="573.345" y="334.709" width="15.753" height="4.943" style="fill:#bcbec0"/><rect x="547.066" y="363.016" width="65.01" height="10.787" style="fill:#a7a9ac"/><rect x="572.422" y="365.715" width="15.753" height="4.943" style="fill:#bcbec0"/><rect x="548.45" y="270.899" width="65.007" height="10.785" style="fill:#a7a9ac"/><rect x="573.807" y="273.596" width="15.753" height="4.943" style="fill:#bcbec0"/><rect x="553.213" y="303.703" width="15.752" height="4.943" style="fill:#bcbec0"/><rect x="551.83" y="334.709" width="15.752" height="4.943" style="fill:#bcbec0"/><rect x="550.908" y="365.715" width="15.752" height="4.943" style="fill:#bcbec0"/><rect x="552.292" y="273.596" width="15.751" height="4.943" style="fill:#bcbec0"/><rect x="596.092" y="303.703" width="15.754" height="4.943" style="fill:#bcbec0"/><rect x="594.709" y="334.709" width="15.752" height="4.943" style="fill:#bcbec0"/><rect x="593.785" y="365.715" width="15.754" height="4.943" style="fill:#bcbec0"/><rect x="595.171" y="273.596" width="15.751" height="4.943" style="fill:#bcbec0"/><rect x="647.18" y="245.115" width="126.125" height="190.383" style="fill:#a7a9ac"/><rect x="655.779" y="320.328" width="9.225" height="6.743" style="fill:#bcbec0"/><rect x="655.322" y="380.543" width="9.221" height="6.74" style="fill:#bcbec0"/><rect x="654.859" y="349.088" width="9.221" height="6.74" style="fill:#bcbec0"/><rect x="655.322" y="258.317" width="9.221" height="6.741" style="fill:#bcbec0"/><rect x="655.322" y="289.324" width="9.221" height="6.739" style="fill:#bcbec0"/><rect x="754.178" y="320.328" width="9.221" height="6.743" style="fill:#bcbec0"/><rect x="753.717" y="380.543" width="9.223" height="6.74" style="fill:#bcbec0"/><rect x="753.256" y="349.088" width="9.223" height="6.74" style="fill:#bcbec0"/><rect x="753.717" y="258.317" width="9.223" height="6.741" style="fill:#bcbec0"/><rect x="753.717" y="289.324" width="9.223" height="6.739" style="fill:#bcbec0"/><rect x="647.18" y="241.7" width="126.125" height="6.829" style="fill:#a7a9ac"/><rect x="684.855" y="379.223" width="43.727" height="42.701" style="fill:#bcbec0"/><rect x="676.492" y="251.802" width="61.434" height="27.748" style="fill:#bcbec0"/><rect x="676.492" y="283.088" width="61.434" height="27.747" style="fill:#bcbec0"/><rect x="676.492" y="313.982" width="61.434" height="27.747" style="fill:#bcbec0"/><rect x="676.492" y="345.383" width="61.434" height="27.746" style="fill:#bcbec0"/><rect x="675.453" y="301.455" width="65.008" height="10.785" style="fill:#a7a9ac"/><rect x="700.81" y="303.703" width="15.752" height="4.943" style="fill:#bcbec0"/><rect x="674.07" y="332.908" width="65.01" height="10.787" style="fill:#a7a9ac"/><rect x="699.428" y="334.709" width="15.752" height="4.943" style="fill:#bcbec0"/><rect x="673.148" y="363.016" width="65.008" height="10.787" style="fill:#a7a9ac"/><rect x="698.504" y="365.715" width="15.754" height="4.943" style="fill:#bcbec0"/><rect x="674.531" y="270.899" width="65.008" height="10.785" style="fill:#a7a9ac"/><rect x="699.889" y="273.596" width="15.752" height="4.943" style="fill:#bcbec0"/><rect x="679.297" y="303.703" width="15.752" height="4.943" style="fill:#bcbec0"/><rect x="677.91" y="334.709" width="15.754" height="4.943" style="fill:#bcbec0"/><rect x="676.99" y="365.715" width="15.752" height="4.943" style="fill:#bcbec0"/><rect x="678.373" y="273.596" width="15.754" height="4.943" style="fill:#bcbec0"/><rect x="722.174" y="303.703" width="15.752" height="4.943" style="fill:#bcbec0"/><rect x="720.791" y="334.709" width="15.752" height="4.943" style="fill:#bcbec0"/><rect x="719.867" y="365.715" width="15.754" height="4.943" style="fill:#bcbec0"/><rect x="721.254" y="273.596" width="15.75" height="4.943" style="fill:#bcbec0"/><rect x="-56.004" y="245.115" width="126.125" height="190.383" style="fill:#a7a9ac"/><rect x="50.993" y="320.328" width="9.222" height="6.743" style="fill:#bcbec0"/><rect x="50.532" y="380.543" width="9.224" height="6.74" style="fill:#bcbec0"/><rect x="50.071" y="349.088" width="9.223" height="6.74" style="fill:#bcbec0"/><rect x="50.532" y="258.317" width="9.224" height="6.741" style="fill:#bcbec0"/><rect x="50.532" y="289.324" width="9.224" height="6.739" style="fill:#bcbec0"/><rect x="-56.004" y="241.7" width="126.125" height="6.829" style="fill:#a7a9ac"/><rect x="-18.331" y="379.223" width="43.727" height="42.701" style="fill:#bcbec0"/><rect x="-26.693" y="251.802" width="61.436" height="27.748" style="fill:#bcbec0"/><rect x="-26.693" y="283.088" width="61.436" height="27.747" style="fill:#bcbec0"/><rect x="-26.693" y="313.982" width="61.436" height="27.747" style="fill:#bcbec0"/><rect x="-26.693" y="345.383" width="61.436" height="27.746" style="fill:#bcbec0"/><rect x="-27.733" y="301.455" width="65.01" height="10.785" style="fill:#a7a9ac"/><rect x="-2.372" y="303.703" width="15.75" height="4.943" style="fill:#bcbec0"/><rect x="-29.114" y="332.908" width="65.009" height="10.787" style="fill:#a7a9ac"/><rect x="-3.757" y="334.709" width="15.753" height="4.943" style="fill:#bcbec0"/><rect x="-30.036" y="363.016" width="65.009" height="10.787" style="fill:#a7a9ac"/><rect x="-4.68" y="365.715" width="15.753" height="4.943" style="fill:#bcbec0"/><rect x="-28.653" y="270.899" width="65.008" height="10.785" style="fill:#a7a9ac"/><rect x="-3.295" y="273.596" width="15.754" height="4.943" style="fill:#bcbec0"/><rect x="18.989" y="303.703" width="15.753" height="4.943" style="fill:#bcbec0"/><rect x="17.606" y="334.709" width="15.752" height="4.943" style="fill:#bcbec0"/><rect x="16.682" y="365.715" width="15.754" height="4.943" style="fill:#bcbec0"/><rect x="18.068" y="273.596" width="15.75" height="4.943" style="fill:#bcbec0"/><rect x="69.078" y="245.115" width="126.125" height="190.383" style="fill:#a7a9ac"/><rect x="77.677" y="320.328" width="9.224" height="6.743" style="fill:#bcbec0"/><rect x="77.219" y="380.543" width="9.221" height="6.74" style="fill:#bcbec0"/><rect x="76.757" y="349.088" width="9.22" height="6.74" style="fill:#bcbec0"/><rect x="77.219" y="258.317" width="9.221" height="6.741" style="fill:#bcbec0"/><rect x="77.219" y="289.324" width="9.221" height="6.739" style="fill:#bcbec0"/><rect x="176.075" y="320.328" width="9.222" height="6.743" style="fill:#bcbec0"/><rect x="175.614" y="380.543" width="9.224" height="6.74" style="fill:#bcbec0"/><rect x="175.153" y="349.088" width="9.223" height="6.74" style="fill:#bcbec0"/><rect x="175.614" y="258.317" width="9.224" height="6.741" style="fill:#bcbec0"/><rect x="175.614" y="289.324" width="9.224" height="6.739" style="fill:#bcbec0"/><rect x="69.078" y="241.7" width="126.125" height="6.829" style="fill:#a7a9ac"/><rect x="106.752" y="379.223" width="43.727" height="42.701" style="fill:#bcbec0"/><rect x="98.389" y="251.802" width="61.434" height="27.748" style="fill:#bcbec0"/><rect x="98.389" y="283.088" width="61.434" height="27.747" style="fill:#bcbec0"/><rect x="98.389" y="313.982" width="61.434" height="27.747" style="fill:#bcbec0"/><rect x="98.389" y="345.383" width="61.434" height="27.746" style="fill:#bcbec0"/><rect x="97.351" y="301.455" width="65.008" height="10.785" style="fill:#a7a9ac"/><rect x="122.708" y="303.703" width="15.752" height="4.943" style="fill:#bcbec0"/><rect x="95.968" y="332.908" width="65.009" height="10.787" style="fill:#a7a9ac"/><rect x="121.326" y="334.709" width="15.752" height="4.943" style="fill:#bcbec0"/><rect x="95.045" y="363.016" width="65.009" height="10.787" style="fill:#a7a9ac"/><rect x="120.402" y="365.715" width="15.754" height="4.943" style="fill:#bcbec0"/><rect x="96.428" y="270.899" width="65.009" height="10.785" style="fill:#a7a9ac"/><rect x="121.787" y="273.596" width="15.752" height="4.943" style="fill:#bcbec0"/><rect x="101.194" y="303.703" width="15.752" height="4.943" style="fill:#bcbec0"/><rect x="99.808" y="334.709" width="15.753" height="4.943" style="fill:#bcbec0"/><rect x="98.888" y="365.715" width="15.752" height="4.943" style="fill:#bcbec0"/><rect x="100.27" y="273.596" width="15.754" height="4.943" style="fill:#bcbec0"/><rect x="144.072" y="303.703" width="15.752" height="4.943" style="fill:#bcbec0"/><rect x="142.688" y="334.709" width="15.752" height="4.943" style="fill:#bcbec0"/><rect x="141.764" y="365.715" width="15.754" height="4.943" style="fill:#bcbec0"/><rect x="143.151" y="273.596" width="15.75" height="4.943" style="fill:#bcbec0"/><path d="M76.965,491.5S35.43,498.12,46.419,508.724s127.1.689,182.936-7.053c102.429-14.206,173.275-20.176,129.2-40.783-41-19.17-250.523,19.893-281.588,30.61" style="fill:#c7c8ca"/><path d="M553.822,468c-11.008,5.5-61.254,31.754-70.5,33.808s-9.75,7.946-8.46,12.807c.4,1.5-.741,2.563-2.526,3.311-1.88.184-3.762.315-5.641.38-3.707.127-8.429-1.869-12.623-10.131,3.706-7.25,70.75-34.989,37-23.87,0,0-40.333,15.7-54.166,28.823-2.64,2.5-4.867,4.257-11.313,4.781-5.916-1.666-4.527-2.939-4.854-4.487-.2-.966,3.7-7.6,4.333-8.226a57.579,57.579,0,0,1,10.91-8.358l81.84-39.32v-3.879s39.75-13.172,49-15.153,31.162-4.88,31.5-1.475-24.7,16.628-24.7,16.628H559.979v3.879A63.441,63.441,0,0,1,553.822,468Z" style="fill:#c7c8ca"/><path d="M494.176,473.869c-11.008,5.5-61.254,31.754-70.5,33.808s-9.75,7.946-8.46,12.807c.4,1.5-.741,2.563-2.526,3.311-1.88.184-3.762.315-5.641.38-3.706.127-8.429-1.869-12.623-10.131,3.705-7.25,70.75-34.989,37-23.87,0,0-31.173,16.631-45.548,31.554-2.525,2.621-5.3,3.623-11.75,4.147-7.809,0-5.548-5.309-5.875-6.856-.2-.966,4.367-5.511,5-6.137,5.219-5.163,15.61-12.685,15.61-12.685l81.84-39.32,1.629-7.241S497,443.527,506.25,441.546s35.037-4.936,35.375-1.531-25.419,13.62-25.419,13.62H499.25l.373,3.365S497.569,469.45,494.176,473.869Z" style="fill:#c7c8ca"/><path d="M316.143,417.4c10.99-5.1,11.2-28.2,14.153-39.619,1.646-6.362,2.924-6.016,7.106-11.567,5.088-6.749,8.826-15.765,8.62-23.725-.123-4.776-2.158-7.434-.731-12.357,1.475-5.085,6.059-7.508,6.261-13.44.266-7.811-7.7-20.655-12.6-25.56-5.019-5.033-15.5-6.924-14.056-17.821.051-.384,4.827-8.054,5.444-9.236.762-1.459-.631-4.335.088-5.985.6-1.382,4.9-4.489,6.066-6.089,6.193-8.527,15.052-22.805,15.747-34.354.541-8.988-2.736-17.775.131-26.88,2.509-7.966,11-15.234,8.991-25.744-1.945-10.176-11.41-18.07-13.374-28.94-3.561-19.706.272-30.124,9.1-45.4,7.206-12.474,9.306-24.967,7.535-41.418-1.476-13.7,1.294-43.743-13.069-49.319C237.289-44.425,170.1,1.987,170.1,1.987c-2.257,2.34-.46,7.533-1.884,10.409-2.934,5.929-7,7.282-8.9,15.349-3.5,14.843-9.777,22.556-18.6,35.1-7.131,10.144-9.886,22.361-17.917,31.808-7.158,8.42-10.8,12.372-13.968,23.78-1.542,5.565-2.745,4.029-3.525,9.442-2.854,19.8-9.4,11.846.886,24.767,11.089,13.929,10.616,37.363,12.594,55.734,1.464,13.587-8.233,13.12-9.934,26.807-1.223,9.839.764,12.4-4.169,20.324-3.478,5.592-7.122,11.3-10.649,16.839-5.287,8.3-5.872,9.657-7.284,20.611-.994,7.714-2.6,12.079-.063,19.907,2.351,7.257,4.27,5.877,3.384,14.121-1.214,11.3-5.387,17.549-.6,29.938,2.668,6.9,10.029,32.748,15.972,33.22C105.45,390.148,242.163,451.739,316.143,417.4Z" style="fill:#939598;mix-blend-mode:multiply"/><path d="M260.246,404.267c1.942-24.681,21.036-16.134,29.451-33.965,16.921-35.852-5.577-27.757-12.663-50.638-10.97-35.41,7.952-39.372,16.353-71.013,7.194-27.087,5.905-68.954,9.242-97.238,3.9-33.026,5-82.579-27.93-88.959-.16,49.518-13.5,51.463-58.08,72.954-33.463,16.132-50.39,93.449-35.058,144.455,5.966,19.848,16.867,13.681,18.682,38.824,1.185,16.432-7.6,27.584-9.9,42.8-3.732,24.677-6.029,95.743,27.831,77.11-.539-5.317,1.475-12.77,1-18.183C235.1,419.977,259.393,430.765,260.246,404.267Z" style="fill:#c7c8ca;mix-blend-mode:multiply"/><line x1="1162.781" y1="544.468" x2="-6.552" y2="544.468" style="fill:none;stroke:#000;stroke-miterlimit:10;stroke-width:0.718406px"/><line x1="1162.781" y1="536" x2="-6.552" y2="536" style="fill:none;stroke:#000;stroke-miterlimit:10;stroke-width:0.718406px"/><line x1="1152" y1="457.514" x2="-9.059" y2="457.514" style="fill:none;stroke:#000;stroke-miterlimit:10;stroke-width:0.71586px"/><line x1="1152" y1="453.635" x2="-9.059" y2="453.635" style="fill:none;stroke:#000;stroke-miterlimit:10;stroke-width:0.71586px"/><path d="M57.187,397.483s.022-6.44,8.416-11.477,15.895-9.178,25.632-6.156a26.946,26.946,0,0,1,14.215,10.3,17.976,17.976,0,0,1-6.939,5.038C93.7,397.312,74.883,401.012,57.187,397.483Z" style="stroke:#000;stroke-miterlimit:10;stroke-width:0.802464px"/><path d="M73.1,396.8c-.6-.074,2.463-9.563,10.633-10.571s14.327,4.253,14.327,4.253S90.116,398.866,73.1,396.8Z" style="fill:#fff;stroke:#000;stroke-miterlimit:10;stroke-width:0.802464px"/><path d="M83.624,378.825s-21.575,4.8-15.339,19.628" style="stroke:#000;stroke-miterlimit:10;stroke-width:0.802464px"/><path d="M80.746,389.417s-4.385,4.155-4.754,7.555c-.339,3.115,6.621,3.572,7.6,3.773s1.194-1.148,1.058-2.294S84.238,387.238,80.746,389.417Z"/><path d="M95.8,393.258s-4.557-5.479-6.812-5.515c-2.067-.034.842,9.652,1.168,11.038s1.251,1.49,1.892,1.142S98.739,397.78,95.8,393.258Z"/><path d="M373.185,444.881s.559-7.275.224-8.506-4.254-1.345-5.82,0-5.416,13.419-20.953,13.985-24.378-.667-11.395,10.3S368.707,471.634,373.185,444.881Z"/><path d="M323.132,411.483s4.1-11.712,16.746-13.054,21.379.335,27.646,14.326,1.791,32.123-8.283,37.049-23.5,5.6-28.318-.672S317.242,427,323.132,411.483Z" style="stroke:#000;stroke-miterlimit:10;stroke-width:0.802464px"/><path d="M350.09,398.269c-4.366.405-7.038.11-13.841,8.334s-4.589,21.6-4.589,21.6.509,13.6,7.834,18.244c0,0,11.176,7.07,23.416.769" style="stroke:#000;stroke-miterlimit:10;stroke-width:0.802464px"/><path d="M188.871,501.675s-62.712-6.987-82.784-13.031S87.43,492,50.512,463.528C37.19,453.252,27.212,430,27.212,430s1.865-7.537,12.312-7.835,60.963-8.134,70.813-9.85,10.3-1.225,17.014,13.751,23.579,34.676,29.7,40.944S188.871,501.675,188.871,501.675Z" style="fill:#fff;stroke:#000;stroke-miterlimit:10;stroke-width:0.802464px"/><path d="M280.171,466.856l-61.187-6.269s-52.254-4.878-61.187-5.148c-4.774-.146-11.641.672-13.334,2.928h0c.346.107,14.815,14.721,17.122,17.17s16.132,18.37,21.37,24.19,49.132.672,57.513,0,19.379-.9,39.7-9.291,27.762-16.712,27.765-16.715C295.85,470.438,280.171,466.856,280.171,466.856Z" style="fill:#fff;stroke:#000;stroke-miterlimit:10;stroke-width:0.802464px"/><path d="M66.838,398.309s18.688-6.437,28.2-8.236,41.361-4.238,41.769-3.807,1.436-.049,1.436-.049l-1.436,3.743-26.658,11.618-39.175,5.73-43.764,4.365s-.8-.131,1.791-2.247S66.838,398.309,66.838,398.309Z" style="stroke:#000;stroke-miterlimit:10;stroke-width:0.802464px"/><path d="M142.723,399.581s40.608-22.209,58.091-3.388c0,0,18.91,31.248-16.892,40.985S138,423.43,142.723,399.581Z"/><path d="M153.244,359.48s-19.1,8.481-16.118,27.31c2.91,18.356,16.081,33.8,33.913,32.684,19.785-1.242,25.607-17.237,23.718-32.235S153.244,359.48,153.244,359.48Z" style="stroke:#000;stroke-miterlimit:10;stroke-width:0.802464px"/><path d="M50.265,396.845s6.273,6.061-1.787,9.87" style="fill:none;stroke:#000;stroke-miterlimit:10;stroke-width:0.802464px"/><path d="M293.133,472.043l-6.358,11.342s1.97-.683,6.358-2.47,11.79-7.518,11.79-7.518Z" style="fill:none;stroke:#000;stroke-miterlimit:10;stroke-width:0.802464px"/><path d="M153.244,359.48s-14.551,6.938-4.03,27.31,26.414,24.849,36.041,22.834,14.809-22.983,3.615-36.862C176.4,357.3,158.082,355.226,153.244,359.48Z" style="stroke:#000;stroke-miterlimit:10;stroke-width:0.802464px"/><path d="M158.878,365.669s-10.513,5.013-2.911,19.73,19.085,17.954,26.039,16.5,10.188-16.659,2.1-26.686C175.1,364.04,162.374,362.6,158.878,365.669Z" style="fill:#fff;stroke:#000;stroke-miterlimit:10;stroke-width:0.802464px"/><path d="M194.757,391.155s29.226,7.565,45.009,11.059,62.232,12.335,70.4,13.229,7.276-1.455,7.276-1.455-.895-1.231,3.246-1.791,9.4-3.692,9.4,4.814.783,17.013.783,17.348-4.477,7.388,6.268,19.365,16.566,13.319,26.528,1.455,9.738-18.8,9.738-18.8a29.2,29.2,0,0,1,1.791,12.312c-.335,7.611-1.9,23.841-5.933,25.52s-31,1.455-43.54,1.008-47.57-5.037-47.57-5.037l-64.583-7.162s-53.357-3.538-62.9-3.807c-9.281-.263-2.379,2.347-17.4-11.977-11.583-11.05-16.632-28.773-16.632-28.773l31.937-14.677s-1.266,1.924.077,13,12.2,21.926,33.355,16.838S202.157,397.128,194.757,391.155Z" style="fill:#fff;stroke:#000;stroke-miterlimit:10;stroke-width:0.802464px"/><path d="M221.968,463.237s4.589-9.513,5.372-16.676,2.91-24.96,5.261-31.453,3.357-7.052,9.625-6.715,55.629,9.065,55.629,9.065,16.342,1.567,16.9,3.022,4.366,12.865,4.366,12.865a55.664,55.664,0,0,0-.56,7.729c.111,3.022,2.014,18.692.56,21.6s-4.941,10.913-6.724,11.5" style="fill:none;stroke:#000;stroke-miterlimit:10;stroke-width:0.802464px"/><line x1="330.875" y1="434.359" x2="197.526" y2="418.89" style="fill:#fff;stroke:#000;stroke-miterlimit:10;stroke-width:0.802464px"/><path d="M226.481,451.043a4.656,4.656,0,0,0-3.394,2.682c-1.231,2.461-2.372,4.942.381,6.108C223.468,459.833,225.927,453.508,226.481,451.043Z"/><path d="M218.671,480.013s2.638-7.934,1.793-10.731-12.063-3.544-21.031-3.767-34.255-1.828-36.049-1.044-3.586,2.462.74,7.051,16.353,16.789,18.886,19.252,5.063,2.238,13.4,3.469,16.459,4.7,18.57-1.565S218.671,480.013,218.671,480.013Z"/><path d="M223.313,491.22s3.9-21.714,4.115-22.161,59.189,6.477,59.189,6.477.423,3.819-5.8,6.619-36.3,11.415-58.452,12.758Z"/><path d="M54.746,402.215s-33.579,8.734-20.818,7.848,71.858-9.616,71.858-9.616,33.131-13.656,36.937-12.536,10.969,10.723,4.924,17.014-19.475,8.953-29.325,12.982S35.718,428.429,27.212,430s-6.7-.9-6.94-13.208l-.018-.894s-.431-3.152,5.614-5.83S59.224,399.28,54.746,402.215Z" style="fill:#fff;stroke:#000;stroke-miterlimit:10;stroke-width:0.802464px"/><path d="M20.367,414.975s59.227-5.91,70.476-7.644c10-1.543,14.66-1.843,18.3-2.942,2.407-.728,29.751-13.041,33.579-16.477" style="fill:none;stroke:#000;stroke-miterlimit:10;stroke-width:0.802464px"/><path d="M74.9,421.164a1.563,1.563,0,0,1-1.392,1.722l-18.768,1.992a1.566,1.566,0,0,1-1.722-1.392l-.908-8.562A1.565,1.565,0,0,1,53.5,413.2l18.768-1.991a1.565,1.565,0,0,1,1.721,1.391Z" style="fill:#fff;stroke:#000;stroke-miterlimit:10;stroke-width:0.699604px"/><path d="M50.265,396.845c.921-.392,16.569,2.033,16.569,2.033s.1,1.813,0,4.478-18.357,3.359-18.357,3.359S41.762,400.446,50.265,396.845Z" style="stroke:#000;stroke-miterlimit:10;stroke-width:0.802464px"/><path d="M50.826,397.653s-19.894-6.941-23.485-6.464-3.27,1.8-3.27,1.8-3.7,8.564-1.735,7.527,6.91-1.609,6.91-1.609l22.37,5.477S53.795,400,50.826,397.653Z" style="stroke:#000;stroke-miterlimit:10;stroke-width:0.802464px"/><path d="M24.844,391.857s-.373,7.181-2.163,8.611c0,0-1.737.992-.442-2.613S24.434,391.327,24.844,391.857Z"/><path d="M51.8,398.924s-19.712-6.954-23.269-6.478-3.24,1.8-3.24,1.8-3.659,8.561-1.712,7.525,6.843-1.6,6.843-1.6l20.546,4.94A4.794,4.794,0,0,0,51.8,398.924Z" style="stroke:#000;stroke-miterlimit:10;stroke-width:0.802464px"/><path d="M26.073,393.145s-.372,7.183-2.163,8.613c0,0-1.737.992-.441-2.614S25.663,392.615,26.073,393.145Z"/><path d="M294.834,478.348s3.022-.335,2.91,1.679.448,4.477,6.156,6.045,8.731,2.238,11.642.782,5.484-4.252-.672-7.722-11.113-5.863-11.113-5.863l-7.922-.905S292.034,477.362,294.834,478.348Z" style="fill:#fff;stroke:#000;stroke-miterlimit:10;stroke-width:0.802464px"/><path d="M303.779,476.223s-4.925,3.469-3.918,5.036,4.554,3.8,10.186,4.365,8.282-2.239,3.917-4.7S305.014,475.6,303.779,476.223Z"/><path d="M170.033,492.525c-7.137-5.882-22.977-24.513-22.977-24.513-6.572-8.18-24.168-3.831-24.168-3.831s-31.206,4.131-37.772,6.332c-7.39,2.476-16.123,1.85-1.316,8.433,0,0,27.923,7.425,52.039,11.868S176.729,498.046,170.033,492.525Z"/><path d="M81.544,476.562S31.428,441.472,45.96,436.71s62.081-10.084,62.081-10.084,7.488-2.222,11.719,10.861c4.125,12.756,30.221,36.69,30.221,36.69" style="fill:none;stroke:#000;stroke-miterlimit:10;stroke-width:0.802464px"/><path d="M63.592,436.17s9.123-2.626,13.08-2.823,7.316,3.16,1.944,4.5S57.3,444.23,63.592,436.17Z" style="fill:#fff;stroke:#000;stroke-miterlimit:10;stroke-width:0.802464px"/><path d="M347.7,406.489s-11.267,3.507-9.626,16.94,5.746,21.042,15.222,21.266,13.432-12.388,11.864-21.714S355.761,402.983,347.7,406.489Z" style="fill:#fff;stroke:#000;stroke-miterlimit:10;stroke-width:0.802464px"/><path d="M351.7,419.324s-1.248.373-.46,2.313,2.055.522,1.906-.523S352.229,418.9,351.7,419.324Z"/><path d="M353.1,428.4s-1.247.372-.46,2.313,2.054.522,1.905-.522S353.627,427.975,353.1,428.4Z"/><path d="M354.693,423.349s-1.248.372-.461,2.312,2.055.524,1.905-.522S355.218,422.92,354.693,423.349Z"/><path d="M351.338,423.659s-1.249.373-.461,2.312,2.055.523,1.9-.522S351.862,423.231,351.338,423.659Z"/><path d="M347.91,421.665s-1.248.373-.461,2.313,2.055.522,1.906-.521S348.435,421.237,347.91,421.665Z"/><path d="M349,427.284s-1.248.374-.46,2.314,2.054.522,1.906-.523S349.524,426.857,349,427.284Z"/><path d="M347.553,408.264s-5,2.4-5.969,5.465c-.891,2.806,5.778,5.6,6.694,6.117s1.365-.671,1.439-1.791S351.331,407.405,347.553,408.264Z"/><path d="M363.233,419.456s-1.9-6.032-4.192-7.17c-2.105-1.04-4.03,7.088-4.4,8.207s.529,1.646,1.362,1.722S363.955,424.029,363.233,419.456Z"/><path d="M363.581,432.185s1.279-5.353-.052-7.367c-1.22-1.844-6.579,3.044-7.4,3.666s-.339,1.467.3,1.952S362.03,435.873,363.581,432.185Z"/><path d="M345.189,439.709s4.884,3.258,7.564,2.611c2.458-.59-.05-7.894-.3-8.965s-1.343-.882-2.14-.4S342.137,436.773,345.189,439.709Z"/><path d="M340.331,425.813s.157,6.055,1.534,7.48c1.261,1.311,4.162-6.184,4.633-7.2a1.234,1.234,0,0,0-.616-1.849C345.318,424.05,340.708,421.329,340.331,425.813Z"/><path d="M167.586,379.713s-.544,1.283,1.282,2.114,1.67-1.26.862-1.928S167.63,378.968,167.586,379.713Z"/><path d="M174.67,385.434s-.544,1.286,1.283,2.116,1.67-1.258.862-1.927S174.714,384.69,174.67,385.434Z"/><path d="M172.241,380.343s-.544,1.286,1.282,2.116,1.671-1.26.862-1.927S172.284,379.6,172.241,380.343Z"/><path d="M170.307,383.277s-.543,1.284,1.283,2.114,1.669-1.259.862-1.928S170.35,382.532,170.307,383.277Z"/><path d="M166.755,384.529s-.544,1.286,1.283,2.116,1.671-1.26.862-1.928S166.8,383.784,166.755,384.529Z"/><path d="M171.285,387.892s-.543,1.286,1.283,2.116,1.671-1.26.863-1.927S171.329,387.148,171.285,387.892Z"/><path d="M157.387,374.709s-1.557,5.836-.09,8.924c1.345,2.832,7.511-.428,8.454-.772s.414-1.6-.3-2.507S159.218,371.022,157.387,374.709Z"/><path d="M172.222,370.089s-6.754-2.279-8.692-1.128c-1.778,1.056,5.776,7.777,6.781,8.789s1.846.612,2.21-.019S177.095,372.4,172.222,370.089Z"/><path d="M183.951,379.858s-2.833-5.067-5.057-5.514c-2.04-.411-2.132,7.588-2.233,8.716s.782,1.38,1.524,1.231S185.474,383.888,183.951,379.858Z"/><path d="M177.322,400.328s5.344-1.472,6.618-4.115c1.169-2.423-5.415-5.913-6.308-6.519s-1.46.415-1.639,1.423S173.368,400.569,177.322,400.328Z"/><path d="M164.739,393.755s4.228,4.441,6.081,4.409c1.7-.027-1.556-8.014-1.948-9.158s-1.16-1.206-1.654-.9S161.922,390.07,164.739,393.755Z"/><path d="M617.314,652.567c1.255-9.191-.466-161.485-.466-161.485-.291-1.168-3.093-38.024-2.379-56.67s3.32-37.135,11.017-47.6c7.7-10.449,13.575-8.843,13.575-8.843l313.865-5.351s1.952-.551,14.886,9.639,18.827,24.012,22.023,31.9.21,18.338.3,31.7.032,31.678,1.406,43.23-4.49,19.5-2.281,31.878,3.811,40.38,3.811,40.38l-2.859,11.987s4.887,79.575,2.509,97.38H617.394Z" style="fill:#fff;stroke:#000;stroke-miterlimit:10;stroke-width:2px"/><path d="M667.655,336.343s2.758-44.432,4.266-53.855,8.625-22.216,7.292-39.113-1.239-45.9.243-60.28,13.049-59.267,36.284-78.039S771,72.419,802.585,83.308s58.291,54.237,69.778,73.081c11.469,18.844,16.524,32.221,23.856,40.818s-2.673,24.221-9.892,38.143-3.18,25.7-8.093,29.894-2.2,3.64,5.477,12.646,19.316,21.373,18.644,34.678-6.476,18.96-12.221,19.259-2.91,7.781,5.773,13.816,16.3,11.214,22.452,10.557c6.139-.657,18.076-6.616,22.739,1.981s23.9,16.152,11.825,14.436-27.965,1.288-32.826,9.673-13.993,22.562-19.418,23.653c-5.44,1.1-56.205,34.864-84.989,56.235s-23.707,34.382-66.1,29.878-61.575-3.348-76.252-25.12-27.522-47.6-29.9-65.723-9.872-24.821,2.314-29.2,21.475-15.854,21.866-20.79S667.486,339.008,667.655,336.343Z" style="fill:#fff;stroke:#000;stroke-miterlimit:10;stroke-width:2px"/><path d="M705.023,225.87s2.861-55.412,45.215-60.071,69.062,9.665,80.943,23.584,22.444,39.554,19.739,59.191-8.624,31.762-16.23,41.079-25.223,29.3-41.662,34.484-35.726,7.856-55.393-18.5-30.074-44.367-32.611-79.762" style="fill:#fff"/><path d="M705.023,225.87s2.861-55.412,45.215-60.071,69.062,9.665,80.943,23.584,22.444,39.554,19.739,59.191-8.624,31.762-16.23,41.079-25.223,29.3-41.662,34.484-35.726,7.856-55.393-18.5S707.56,261.265,705.023,225.87Z" style="fill:none;stroke:#000;stroke-miterlimit:10;stroke-width:2px"/><path d="M859.046,411.04c-6.747,3.6-9.254.084-11.337-7.337a37.154,37.154,0,0,1-2.8,3.567c-11.711,12.815-26.46,35.31-89.914,41.353s-53.632-2.344-66.106-18.214-25.234-48.948-16.811-38.354c0,0,12.5,15.5,21.462,27.65s27.034,22.368,40.084,20.35-2.277-1.319-13.488-9.083-10.477-12.277,8.994-2.722,26.265,12,34.1,11.1c7.839-.912,63.92-10.21,74.879-42.54,1.74-5.146,3.07-8.66,4.125-11.137-4.934-5.158-13.959,7.2-20.9,10.163-8.3,3.539-2.893-2.14-1.1-14.972s15.423-21.294,23.743-43.535,20.13-9.6,33.224-10.81c40.748-3.757-13.083-30.181-13.99-47.426s.649-15.374-.925-29.242,8.16-6.6,9.524-19.087-4.513-15.244-8.1-18.2.167-35.863-5.168-59.184-27.826-35.028-14.024-11.794,7.724,42.208-1.572,24.679-34.236-35.152-53.166-37.031-5.06,6.087,16.951,12.412,60.015,71.16,30.738,36.017S751.73,151.793,739.205,155.7s-28.186,23.4-20.216-4.976,43.117-33.6,37.923-35.542c-5.179-1.946-18.343.457-34.492,16.351s-23.441,30.964-21.654,13.171,37.785-48.15,37.785-48.15l.151-1.9c6.146-7.237-26.172,13.26-38.548,29.017s-15.553,85.4-15.229,100.6,11.584,22.372.246,40.173-1.52,67.438-8.07,73.022-.529,16.367,2.833,36.485-13.218,3.147-19.47,4.943c-6.233,1.794,2.713,13.952-3.858,29.349-6.554,15.4-2.4,25.377,4.008,37.863s18.928,28.408,28.1,35.237,48,9.42,60.883,10.707,26.883,2.515,35.458-3.534,17.672-15.424,30.637-26.344c12.965-10.9,25.847-27.722,36.869-36.768S869,405.72,859.046,411.04M750.238,165.8c42.35-4.659,69.062,9.664,80.943,23.584s22.444,39.554,19.739,59.191-8.624,31.761-16.23,41.077-25.222,29.3-41.662,34.484-35.726,7.856-55.393-18.505-30.074-44.366-32.611-79.761c0,0,2.861-55.412,45.215-60.071M704.173,322.776c12.024-5.451-.844-36.958,1.623-42.447s4.556-1.435,5.239.535c0,0,8.143,37.151,16.425,49.846s23.329,18.9,30.282,25.681,37.331,20.177,9.564,15.066c-27.785-5.109-41.1-23.671-60.191-26.372s-14.966-16.868-2.942-22.309" style="fill:url(#c)"/><path d="M786.833,194.028s-10.02,2.772-10.594,5.365-2.752,7.839.969,6.724,15.976-8.95,26-10.268,20.676,1.711,23.9,1.894c4.552.265-7.879-6.539-17.2-6.992-13.648-.661-23.075,3.277-23.075,3.277"/><path d="M741.2,198.667s9.642.5,10.936,3.014c1.275,2.513,4.75,7.365,1.144,7.1s-16.755-5.407-25.975-4.411c-9.236,1-17.076,6.544-20.5,7.524-2.878.822,5-8.525,13.069-11.166a46.859,46.859,0,0,1,21.327-2.057"/><path d="M790.573,215.556s4.555-7.271,10.375-9.483,16.4-.989,19.451,1.54,2.8,3.13.806,4.285S814.885,217.1,790.573,215.556Z" style="fill:none;stroke:#000;stroke-miterlimit:10;stroke-width:2px"/><path d="M799.791,206.621c-.4.26-2.136,9.436,2.446,9.269,4.176-.152,11.268-.325,13.7-1.576,2.11-1.092-1.3-8.839-1.3-8.839S803.295,204.257,799.791,206.621Z" style="fill:none;stroke:#000;stroke-miterlimit:10;stroke-width:2px"/><path d="M813.292,209.928a5.743,5.743,0,1,1-6.041-5.909,5.949,5.949,0,0,1,6.041,5.909"/><path d="M750.782,221.356s-5.977-6.158-12.132-7.108c-6.153-.933-16.238,2.474-18.7,5.591s-2.073,3.648.114,4.354S727.345,227.957,750.782,221.356Z" style="fill:none;stroke:#000;stroke-miterlimit:10;stroke-width:2px"/><path d="M739.9,214.549c.439.169,4.06,8.781-.452,9.565-4.132.729-11.095,2.052-13.721,1.337-2.3-.627-.571-8.917-.571-8.917S735.97,212.958,739.9,214.549Z" style="fill:none;stroke:#000;stroke-miterlimit:10;stroke-width:2px"/><path d="M728.3,220.791a5.308,5.308,0,1,0,4.336-6.506,5.514,5.514,0,0,0-4.336,6.506"/><path d="M751.55,201.891s4.691,6.368,4.764,17.437.11,17.758-3.606,28.531.9,8.06,7.508,8.964,7.925,3.547,14.216,1.259c6.274-2.281,14.682-4.669,12.631-12.654" style="fill:none;stroke:#000;stroke-miterlimit:10;stroke-width:2px"/><path d="M749.622,284.776s4.266,5,14.286,7.249,8.529,2.718,16.066-.477a137.75,137.75,0,0,0,15.186-7.831s-24.888-9.544-45.539,1.058" style="fill:#fff"/><path d="M749.924,283.782s9-10.65,11.807-9.263,7.537.511,7.537.511,5-1.59,7.109-1.475c3.476.19,18.784,10.164,18.784,10.164s-15.836-2.257-22.519-2.319c-12.519-.117-26.034,6.006-22.718,2.382" style="fill:#fff"/><path d="M749.622,284.776s4.266,5,14.286,7.249,8.529,2.718,16.066-.477a137.75,137.75,0,0,0,15.186-7.831S770.273,274.174,749.622,284.776Z" style="fill:none;stroke:#000;stroke-miterlimit:10;stroke-width:2px"/><path d="M749.924,283.782s9-10.65,11.807-9.263,7.537.511,7.537.511,5-1.59,7.109-1.475c3.476.19,18.784,10.164,18.784,10.164s-15.836-2.257-22.519-2.319C760.123,281.282,746.607,287.406,749.924,283.782Z" style="fill:none;stroke:#000;stroke-miterlimit:10;stroke-width:2px"/><path d="M656.435,477.25c-.027,5.5-4.4,38.127-4.058,51.229s17.82,49.375,18.554,52.34,2.218,89.892,2.218,89.892" style="fill:none;stroke:#000;stroke-miterlimit:10;stroke-width:2px"/><path d="M899.26,467.881S919,531.13,913.917,559.474s-.3,111.236-.3,111.236" style="fill:none;stroke:#000;stroke-miterlimit:10;stroke-width:2px"/><path d="M764.445,491.523c-2.654.616-4.389,57.589-2.643,113.938l1.745,56.35" style="fill:none;stroke:#000;stroke-miterlimit:10;stroke-width:2px"/><ellipse cx="785.86" cy="527.902" rx="14.091" ry="12.629" transform="translate(197.562 1269.631) rotate(-85.472)" style="fill:none;stroke:#000;stroke-miterlimit:10;stroke-width:2px"/><ellipse cx="786.08" cy="607.5" rx="14.091" ry="12.629" transform="translate(118.414 1343.164) rotate(-85.472)" style="fill:none;stroke:#000;stroke-miterlimit:10;stroke-width:2px"/><polygon points="391.211 365.045 387.988 364.391 397.201 309.639 400.282 310.019 391.211 365.045" style="fill:#fff;stroke:#000;stroke-miterlimit:10;stroke-width:0.496451px"/><polygon points="415.432 337.664 371.747 329.945 378.464 290.665 422.15 298.384 415.432 337.664" style="fill:#fff;stroke:#000;stroke-miterlimit:10;stroke-width:0.496451px"/><path d="M386.795,303.54a1.7,1.7,0,0,0-.769-1.406,2.466,2.466,0,0,0-.945-.37,2.169,2.169,0,0,0-1.842.47,3.6,3.6,0,0,0-1.091,2.223,2.959,2.959,0,0,0,.312,2.362,2.409,2.409,0,0,0,1.519.953,2.153,2.153,0,0,0,1.567-.248,2.274,2.274,0,0,0,.956-1.224l-1.98-.361.261-1.428,3.564.65-.838,4.592-1.184-.216.014-1.1a4.14,4.14,0,0,1-1.084.687,3.335,3.335,0,0,1-1.82.115,3.679,3.679,0,0,1-2.572-1.685,4.565,4.565,0,0,1-.542-3.443,4.826,4.826,0,0,1,1.751-3.122,3.964,3.964,0,0,1,3.253-.7,4.022,4.022,0,0,1,2.472,1.306,3.13,3.13,0,0,1,.758,2.271Z"/><path d="M393.193,301.948l2.023.368,1.467,9.109-1.938-.353-.245-1.862-3.15-.574-.9,1.653-1.87-.341Zm-1.089,5.3,2.191.4-.466-3.564Z"/><path d="M405,304.1l2.573.469-1.56,8.558-1.667-.3,1.056-5.789c.03-.166.074-.4.134-.7s.1-.53.131-.692l-2.931,6.886L401,312.213l-.3-7.475c-.029.162-.069.394-.12.694s-.092.534-.122.7l-1.056,5.789-1.667-.3,1.56-8.558,2.6.475.33,7.013Z"/><path d="M415.321,307.549l-4.528-.825-.331,1.816,4.157.759-.271,1.486-4.157-.759-.4,2.2,4.737.864-.28,1.539-6.484-1.184,1.561-8.557,6.275,1.145Z"/><path d="M385.56,321.826a4.507,4.507,0,0,1-5.607-1.023,4.689,4.689,0,0,1-.656-3.767,4.6,4.6,0,0,1,1.944-3.293,4.511,4.511,0,0,1,5.607,1.023,4.614,4.614,0,0,1,.651,3.766A4.7,4.7,0,0,1,385.56,321.826Zm-.88-1.5a4.354,4.354,0,0,0,.813-4.455,2.073,2.073,0,0,0-1.543-1.095,2.1,2.1,0,0,0-1.838.475,4.317,4.317,0,0,0-.813,4.459,2.1,2.1,0,0,0,1.553,1.093A2.074,2.074,0,0,0,384.68,320.321Z"/><path d="M394.309,315.365l1.857.339-4.479,8.025L390,323.421l-1.332-9.085,1.908.349.674,6.835Z"/><path d="M403.245,318.561l-4.528-.825-.332,1.816,4.157.759-.271,1.486-4.157-.759-.4,2.2,4.737.864-.281,1.539-6.484-1.184,1.561-8.557,6.275,1.144Z"/><path d="M410.529,318.552a2.16,2.16,0,0,1,.692.744,2.732,2.732,0,0,1,.3.8,2.439,2.439,0,0,1-.006.929,2.581,2.581,0,0,1-.526,1.142,1.744,1.744,0,0,1-1.167.649,1.615,1.615,0,0,1,.715.829,2.873,2.873,0,0,1,0,1.384l-.106.574a4.426,4.426,0,0,0-.1.8.721.721,0,0,0,.242.549l-.04.215-1.975-.36q-.029-.3-.032-.481a4.27,4.27,0,0,1,.06-.751l.132-.8a1.634,1.634,0,0,0-.083-1.144,1.466,1.466,0,0,0-.969-.459l-1.746-.318-.612,3.356-1.748-.319,1.561-8.557,4.094.746A3.8,3.8,0,0,1,410.529,318.552Zm-3.927.592-.419,2.3,1.924.351a2.08,2.08,0,0,0,.886.018.98.98,0,0,0,.683-.871,1.1,1.1,0,0,0-.3-1.134,1.789,1.789,0,0,0-.8-.3Z"/><path d="M435.979,507.269v2.079s-4.6,6.767-8.872,7.173-5.679-1.23-5.01-3.384S434.644,507.016,435.979,507.269Z" style="fill:#fff;stroke:#000;stroke-miterlimit:10;stroke-width:0.6826679999999999px"/><path d="M426.336,505.959c-.235.126-3.5,4.269-3.964,5.961s-.927,4.533,3.938,3.857,6.267-4.773,8.334-7.327C434.644,508.45,433.569,502.1,426.336,505.959Z" style="fill:#fff;stroke:#000;stroke-miterlimit:10;stroke-width:0.6826679999999999px"/><path d="M432.036,506.912h-4.929l2.6,3.856-3.936-.812,4.87-1.116-1.984-3.136s-3.344,4.252-2.348,5.471,4.057-1.973,5.229-4.472" style="fill:none;stroke:#000;stroke-miterlimit:10;stroke-width:0.6826679999999999px"/><path d="M430.98,513.414a8.532,8.532,0,0,0-3.54.671c-1.467.744-2.663-.317-.334-2.642" style="fill:none;stroke:#000;stroke-miterlimit:10;stroke-width:0.6826679999999999px"/><path d="M426.31,511.176s-1.339,2.029-2.272,2.165-.439-2.366-.886-3.044" style="fill:none;stroke:#000;stroke-miterlimit:10;stroke-width:0.6826679999999999px"/><path d="M456.1,506.816v2.157s4.778,7.024,9.21,7.447,5.9-1.278,5.2-3.513S457.483,506.553,456.1,506.816Z" style="fill:#fff;stroke:#000;stroke-miterlimit:10;stroke-width:0.6826679999999999px"/><path d="M466.109,505.457c.243.132,3.629,4.432,4.115,6.187s.961,4.706-4.09,4-6.505-4.955-8.651-7.6C457.483,508.044,458.6,501.448,466.109,505.457Z" style="fill:#fff;stroke:#000;stroke-miterlimit:10;stroke-width:0.6826679999999999px"/><path d="M460.192,506.445h5.115l-2.7,4,4.085-.844-5.055-1.159,2.06-3.255s3.471,4.414,2.437,5.679-4.211-2.048-5.428-4.642" style="fill:none;stroke:#000;stroke-miterlimit:10;stroke-width:0.6826679999999999px"/><path d="M461.287,513.2a8.836,8.836,0,0,1,3.674.7c1.523.773,2.764-.329.347-2.743" style="fill:none;stroke:#000;stroke-miterlimit:10;stroke-width:0.6826679999999999px"/><path d="M466.134,510.871s1.389,2.108,2.357,2.247.458-2.456.921-3.158" style="fill:none;stroke:#000;stroke-miterlimit:10;stroke-width:0.6826679999999999px"/><path d="M464.545,435.3c.479,1.534,1.922,30,1.272,37.1s-1.218,22.133-.685,28.087,1.6,4.331-.934,4.06-7.872,2.437-8.093,3.67-1.513-2.586-2.313-6.24-2.4-21.384-2-25.444-2.8-14.211-3.232-17.729-2.265-17.267-3.6-13.07-2.642,16.184-3.176,19.025-2.667,6.9-2.419,11.368-.114,12.992-1.049,17.054-.8,11.232-1.6,12.721-1.335,3.113-3.07,1.884a23.925,23.925,0,0,0-5.737-2.289s-2.135,2.3-1.468,0,.934-27.474.577-30.451,2.11-7.843,1.709-15.42c0,0-.35-9.753-.617-13.34s-.334-7.511.134-8.323,35.224-4.736,35.957-4.668S464.545,435.3,464.545,435.3Z" style="fill:#fff;stroke:#000;stroke-miterlimit:10;stroke-width:0.6826679999999999px"/><path d="M439.543,368.081c-.035.458-1.307,10.367-1.307,10.367l8.247,4.1,7.5-6.284-6.142-11.879Z" style="fill:#fff;stroke:#000;stroke-miterlimit:10;stroke-width:0.6826679999999999px"/><path d="M478.052,433.052a14.276,14.276,0,0,0,1,2.8,25.372,25.372,0,0,1,1.824,4.526,3.726,3.726,0,0,1-.972,2.063c-.315.142.2,2.131-.584,2.69,0,0-.5,1.977-.952,1.875a1.68,1.68,0,0,1-.647-.271,10.113,10.113,0,0,1-1.233.464c-.572.16-1.463-1.9-1.463-1.9s-.206.536-.791.15-.334-1.969-.676-3.6a17.168,17.168,0,0,1-.49-5.106c.238-.95.711-3.63.7-3.777l-.014-.147Z" style="fill:#fff;stroke:#000;stroke-miterlimit:10;stroke-width:0.6826679999999999px"/><path d="M476.947,443.588a26.931,26.931,0,0,0,.778,3.15" style="fill:#fff;stroke:#000;stroke-miterlimit:10;stroke-width:0.6826679999999999px"/><path d="M478.584,442.685a14.6,14.6,0,0,1,.74,2.449" style="fill:#fff;stroke:#000;stroke-miterlimit:10;stroke-width:0.6826679999999999px"/><path d="M436.158,361.853s-1.791-.438-1.962.4c-.361,1.747,1.126,5.1,2.5,4.342a6.674,6.674,0,0,0,1.3,3.268c1.132,1.352,2.986,4.751,4.582,4.611s3.242.164,5.286-2.454,2.414-7.071,2.414-7.071.6.573,1.053.224a3.644,3.644,0,0,0,.923-3.43c-.5-1.428-1.18-1.347-1.18-1.347a6.306,6.306,0,0,0,.229-1.414,9.443,9.443,0,0,0-1.494-4.529c-1.031-1.315-2.34-4.233-5.713-4.677s-7.19.746-8.273,4.094S434.534,358.328,436.158,361.853Z" style="fill:#fff;stroke:#000;stroke-miterlimit:10;stroke-width:0.6826679999999999px"/><path d="M441.326,358.372a8,8,0,0,0-1.6-1.208,2.886,2.886,0,0,0-2.621,1.007c-.461.654-.044.511.62-.143.384-.376,1.636-.218,2.3.5S441.3,359.416,441.326,358.372Z"/><path d="M444.047,356.962s-1.265.791-.955,1a5.369,5.369,0,0,0,.774.4,3.249,3.249,0,0,1,2.377-1c1.24.177,2.616,1.544,2.341.835s-1.866-2.1-2.957-1.876A3.851,3.851,0,0,0,444.047,356.962Z"/><path d="M439.981,356.368s1.655,1.032,1.4,2.437-1.483,4.483-.388,4.615" style="fill:none;stroke:#000;stroke-miterlimit:10;stroke-width:0.6826679999999999px"/><path d="M440.591,359.623s-.242-.827-1.489-.532-1.876.89-.9.962S440.512,360.2,440.591,359.623Z" style="fill:none;stroke:#000;stroke-miterlimit:10;stroke-width:0.6826679999999999px"/><path d="M444.947,358.635s-1.266.456-.5.793a4.459,4.459,0,0,0,3.023,0C448.382,359.056,445.937,358.325,444.947,358.635Z" style="fill:none;stroke:#000;stroke-miterlimit:10;stroke-width:0.6826679999999999px"/><path d="M438.952,359.131a.716.716,0,0,0,.369.97" style="fill:none;stroke:#000;stroke-miterlimit:10;stroke-width:0.6826679999999999px"/><path d="M445.97,358.584s-.114.965.485,1.08" style="fill:none;stroke:#000;stroke-miterlimit:10;stroke-width:0.6826679999999999px"/><ellipse cx="439.882" cy="359.421" rx="0.393" ry="0.398" transform="translate(-39.393 54.503) rotate(-6.787)"/><ellipse cx="446.8" cy="358.976" rx="0.42" ry="0.367" transform="translate(-39.014 54.873) rotate(-6.735)"/><path d="M440.85,367.877a9.081,9.081,0,0,1,.43-2.224c.277-.46.941-.428,1.174-.473s.755-.536,1.427.016a14.312,14.312,0,0,1,1.78,2.245,9.917,9.917,0,0,1-.469,3.1,1.643,1.643,0,0,1-2.294.919A7.487,7.487,0,0,1,440.85,367.877Z" style="fill:none;stroke:#000;stroke-miterlimit:10;stroke-width:0.6826679999999999px"/><path d="M441.237,367.793c-.021-.087.393-1.792.77-1.874a1.521,1.521,0,0,1,1.831.323,7.857,7.857,0,0,1,1.322,1.314,5.345,5.345,0,0,1-.7,2.366C443.844,370.774,441.942,370.738,441.237,367.793Z" style="fill:none;stroke:#000;stroke-miterlimit:10;stroke-width:0.6826679999999999px"/><path d="M441.52,366.716s1.233-.1,1.211-.23c-.053-.312-.1-.826-.1-.826" style="fill:none;stroke:#000;stroke-miterlimit:10;stroke-width:0.6826679999999999px"/><path d="M443.96,366.428s-1.22.189-1.229.058c-.021-.317-.1-.826-.1-.826" style="fill:none;stroke:#000;stroke-miterlimit:10;stroke-width:0.6826679999999999px"/><path d="M441.46,368.176s1.077-.792,1.407-.5c.427.376.662-.822,2.092-.364" style="fill:none;stroke:#000;stroke-miterlimit:10;stroke-width:0.6826679999999999px"/><path d="M443.852,362.823s-.184-.721-.632-.519-.24.418.162.575S443.852,362.823,443.852,362.823Z"/><path d="M441.823,362.709s-.513.057-.629-.187-.379.71.08.7S442.078,362.847,441.823,362.709Z"/><path d="M438.636,370.7s-3.643,1.139-5.114,1.722-1.831,1.935-2.42,2.223a9.848,9.848,0,0,1-2.22.442s.177.911-.347,1.119-1.439.873-1.925,1.116-3.156,1.226-4.274,1.044-.355-.536-1.882-.429-2.123.323-3.4.4-2.839-.482-3.053-1.387-.334-.672-1.539-1.6-1.015-.881-1.083-1.468a3.02,3.02,0,0,0-1.255-2.328c-1.184-1.062-3.6-1.976-5.05-4.441a15.812,15.812,0,0,0-3.722-4.351c-.518-.382-.314-.511-1.384-.907s-1.452-1.8-1.5-3.207.312-3.233-.492-4.067-1.567-1.115-2.174-1.936-1.439-2.022-1.232-2.457c0,0,.165-.465-.478-.648l-.347-.147s-2.055.579-1.532,2.3.881,1.606.938,1.786a13.051,13.051,0,0,1-.073,1.605,4.678,4.678,0,0,0-1.485-.5,1.376,1.376,0,0,1-1.056-.581c-.049-.105.531-.471.583-1s-.9-1.714-.928-2.009a3.326,3.326,0,0,1,.123-.868,1.974,1.974,0,0,0-1.674.42c-.95.671-1.456,1.361-.323,2.306,0,0-1.2.067-1.549.553a1.184,1.184,0,0,0,.5,1.8l.237.159s.154.39-.536.434-1.377.5-.8,1.171a2.967,2.967,0,0,0,.921.82s-1.067-.022-.552.957a8.877,8.877,0,0,0,1.966,2.692l.221-1.307,3.324.344s-.754,2.059-.338,2.826.575.525,1,1.07.161.149.161.149-1.072-.409-1.3.192a2.12,2.12,0,0,0,.648,2.133,1.391,1.391,0,0,0-.012,1.8c.737,1-.165.807-.106,1.326a2.178,2.178,0,0,0,1.394,1.942c1.06.3,1.082,1.748,2.366,3.381s4.164,5.343,5.067,6.2,1.151,2.688,2.812,3.125,2.244,2,3.333,2.879.792,1.8,2.943,2.03,1.265.816,4.076,1.043,4.264.466,5.055.966,1.512,2.013,2.135,2.015,1.294-.524,1.236,2.492.8,9.23.716,11.359-1.94,10.259-1.636,14.831a20.292,20.292,0,0,0,2.055,8.042c.55,1.272-.635,2.119.44,3.849s.168,2.4,1.423,3.474,2.553-2,3.069-.388,6.9.143,11.029-.306,11.277-1.029,15.21-.416c4.625.722,10.178,2.093,10.753,1.989s2.688-7.883,2.71-9.595,1.939,1.185,3.271,2.587a4.673,4.673,0,0,1,.462.59,11.884,11.884,0,0,1,1.386,3.8s5.05-.351,4.938-1.972a29.722,29.722,0,0,0-.66-3.383,8.339,8.339,0,0,1-.273-2.548,17.377,17.377,0,0,0-.083-9.056c-1.325-4.525-.093-10.543-2.018-14.55s-1.165-8.778-3.034-12.941-4.027-12.159-5.463-13.181-1.61-.626-1.471-1.98-1.033-2.628-1.963-3.706-4.692-1.95-7.128-2.755-3.763-1.288-4.518-1.5-1.921-.691-1.921-.691.358,2.5.347,2.562a14.661,14.661,0,0,0,1.2,1.493,3.851,3.851,0,0,1,.648,2.3c-.085.7-.553,2.052-3.648,3.16s-5.41.747-6.737.03-1.222-1.564-1.222-1.564l.369-.621C440.549,374.507,438.733,370.834,438.636,370.7Z" style="fill:#fff;stroke:#000;stroke-miterlimit:10;stroke-width:0.6826679999999999px"/><path d="M440.4,375.584a18.641,18.641,0,0,0-3.117,4.662c-1.079,2.506-1.927,9.194-2.325,15.532s-1.193,9.205-1.775,10.512-.773,4.351-1.071,8.991a102.016,102.016,0,0,1-2.09,13.325c-.92,4.767-.613,5.444-1.8,8.13" style="fill:none;stroke:#000;stroke-miterlimit:10;stroke-width:0.6826679999999999px"/><path d="M457.978,436.736c.391,1.254-2.946-5.971-3.54-8.18s-2.788-12.4-3.471-16.236-.823-12.733-1.222-15.806a38.849,38.849,0,0,1,.374-9.109c.263-1.963,2.1-7.578,1.886-8.645s.089-2.784-.27-3.534c0,0,.607,5.575,1.733,6.88a3.035,3.035,0,0,0,2.336,1.21s2.2-5.486,3.989-6.1,5.162-2.669,4.878-3.069" style="fill:none;stroke:#000;stroke-miterlimit:10;stroke-width:0.6826679999999999px"/><path d="M428.908,375.352c0,.148,1.443,4.474,2.1,5.98s1.818-.313,3.221-1.718,5.966-4.849,6.539-4.651" style="fill:none;stroke:#000;stroke-miterlimit:10;stroke-width:0.6826679999999999px"/><path d="M467.165,378.555s-1.843,2.155-3.836,4.371-4.666,7.706-5.782,8.047-1.49,5.64-2.029,7.338a47.356,47.356,0,0,0-1.5,12.462c.112,5.238-.2,14.333.627,17.414s1.034,3.544,1.034,3.544" style="fill:none;stroke:#000;stroke-miterlimit:10;stroke-width:0.6826679999999999px"/><path d="M452.373,419.346s-.087-9.168-.453-11.5.177-9.975,1.183-12.27,2.36-4.985,2.4-7.615a6.4,6.4,0,0,1,2.206-5.063c.984-.762,2.982-1.242,3.364-3.023s3.216-3.574,4.27-2.749" style="fill:none;stroke:#000;stroke-miterlimit:10;stroke-width:0.6826679999999999px"/><path d="M433.186,406.29s.208-8.445-.452-11.192-1.692-13.56-2.219-15.016a6.186,6.186,0,0,0-1.922,1.039c-.381.491-.887,1.2-.2,3.392s2.206,10.291,3.01,12.674,1.476,10.074,1.476,10.074" style="fill:none;stroke:#000;stroke-miterlimit:10;stroke-width:0.6826679999999999px"/><path d="M451.845,407.113a42.5,42.5,0,0,1,.336-10.639c.933-5.509,1.865-8.046,1.894-9.485s1.729-3.673,1.729-3.673" style="fill:none;stroke:#000;stroke-miterlimit:10;stroke-width:0.6826679999999999px"/><path d="M425.085,387.577s-1.326,3.773-.761,4,5.668-.185,5.668-.185l-.941-4.285Z" style="fill:none;stroke:#000;stroke-miterlimit:10;stroke-width:0.6826679999999999px"/><path d="M424.325,391.581a41.261,41.261,0,0,0-.209,5.869c.2,1.762-.35,2.914,1.243,3.175s4.422.667,4.988-.786a16.029,16.029,0,0,0,.631-4.157" style="fill:none;stroke:#000;stroke-miterlimit:10;stroke-width:0.6826679999999999px"/><path d="M468.611,428.618a46.088,46.088,0,0,1-2.277-5.773c-.932-3.011-1.48-6.957-2.027-8.331s-.212-9.535-.86-12.628-2.425-17.885,3.495-23.07" style="fill:none;stroke:#000;stroke-miterlimit:10;stroke-width:0.6826679999999999px"/><path d="M422.4,394.181s.727-4.49,1.539-8.5,2.017-7.946,3.426-8.816" style="fill:none;stroke:#000;stroke-miterlimit:10;stroke-width:0.6826679999999999px"/><path d="M477.692,430.5a10.492,10.492,0,0,1-5.665,1.554" style="fill:none;stroke:#000;stroke-miterlimit:10;stroke-width:0.6826679999999999px"/><path d="M387.089,357.784a54.479,54.479,0,0,1,5.96,1.193c.327.3.92,1.692-1,1.493" style="fill:none;stroke:#000;stroke-miterlimit:10;stroke-width:0.6826679999999999px"/><path d="M387.507,355.359s3.449,1,4.88,1.356,1.741,2.1.663,2.262" style="fill:none;stroke:#000;stroke-miterlimit:10;stroke-width:0.6826679999999999px"/><path d="M391.867,354.619s1.581.484,1.909,1.116-.016,1.345-1.286,1.009" style="fill:none;stroke:#000;stroke-miterlimit:10;stroke-width:0.6826679999999999px"/><path d="M388.318,352.849a9.644,9.644,0,0,0,2.22,1.149" style="fill:none;stroke:#000;stroke-miterlimit:10;stroke-width:0.6826679999999999px"/><path d="M389.014,353.278s.245-1.174.82-.942a1.82,1.82,0,0,1,.855.745l-.41.865Z" style="fill:none;stroke:#000;stroke-miterlimit:10;stroke-width:0.6826679999999999px"/><path d="M393.027,364.748a11.268,11.268,0,0,0,6.3-3.338" style="fill:#fff;stroke:#000;stroke-miterlimit:10;stroke-width:0.6826679999999999px"/><path d="M392.226,366.842s3.888.69,9.128-4.089" style="fill:#fff;stroke:#000;stroke-miterlimit:10;stroke-width:0.6826679999999999px"/><path d="M439.681,376.317a4.254,4.254,0,0,0,3.778,2.571,11.507,11.507,0,0,0,8.392-2.648" style="fill:none;stroke:#000;stroke-miterlimit:10;stroke-width:0.6826679999999999px"/><path d="M451.145,360.145a5.85,5.85,0,0,0,.164-1.166,9.443,9.443,0,0,0-1.494-4.529c-1.031-1.315-2.34-4.233-5.713-4.677s-7.19.746-8.273,4.094c-1.018,3.153-1.266,4.328.064,7.4.645.1-.4-.922.542-2.963s-.651-1.408.72-3.5,3.153-1.908,6.3-1.684,4.433.766,4.568,1.939.237,1.212,1.3,2.374.24,6.361.648,5.669C450.331,362.5,450.046,361.147,451.145,360.145Z"/><path d="M435.442,361.631s1.829,4.479,13.963,1c0,0,1.289,2.881.346,9.234s-5.124,14.641-7.007,11.048C439.95,377.584,434.665,370.644,435.442,361.631Z" style="fill:#fff;stroke:#000;stroke-miterlimit:10;stroke-width:0.6826679999999999px"/><path d="M395.6,514.148l.569,2.233s6.731,6.529,11.372,6.272,5.69-2.239,4.393-4.446S396.946,513.661,395.6,514.148Z" style="fill:#fff;stroke:#000;stroke-miterlimit:10;stroke-width:0.6826679999999999px"/><path d="M405.473,511.182c.286.1,4.877,4.02,5.836,5.762s2.221,4.722-3.127,4.783-7.952-4.114-10.842-6.524C397.34,515.2,396.743,508.2,405.473,511.182Z" style="fill:#fff;stroke:#000;stroke-miterlimit:10;stroke-width:0.6826679999999999px"/><path d="M386.107,515.97l-.569,2.233s-6.731,6.528-11.372,6.271-5.69-2.24-4.393-4.446S384.76,515.481,386.107,515.97Z" style="fill:#fff;stroke:#000;stroke-miterlimit:10;stroke-width:0.6826679999999999px"/><path d="M376.234,513c-.285.1-4.877,4.021-5.836,5.763s-2.221,4.72,3.127,4.782,7.951-4.115,10.842-6.524C384.367,517.023,384.963,510.021,376.234,513Z" style="fill:#fff;stroke:#000;stroke-miterlimit:10;stroke-width:0.6826679999999999px"/><path d="M401.731,514.96c-.022.056-.027.125-.076.157-2.244,1.435-6.6,1.675-5.957-1.627.329-1.706-.916-9.477-2.116-13.82a121.427,121.427,0,0,1-2.821-18.053c-.354-4.892-1.933-8.5-2.542-12.552-.632-4.194-1.593-13.586-3.111-18.041s-.7,8-.6,11.876-1.441,14.19-1.417,19.618c.021,4.462,2.331,21.631,3.013,26.9.522,4.025-.25,10.113-.569,8.789s-8.79-4.556-10.673-4.034-.877,2.2-1.2-4.343-2.37-20.029-2.8-30.555c-.32-7.793-1.464-38.838-1.289-40.555,0,0-.529-2.083.017-2.223s26.624,2.652,27.076,3.5a19.43,19.43,0,0,1,1.773,7.432c.4,6.754.359,5.375,1.154,14.6.616,8.3,3.073,13.382,3.165,16.657s2.866,31.911,4.812,33.587c0,0,.673.514-1.019.143S401.731,514.96,401.731,514.96Z" style="fill:#fff;stroke:#000;stroke-miterlimit:10;stroke-width:0.6826679999999999px"/><polygon points="354.78 428.613 351.998 431.148 392.868 478.655 395.668 476.472 354.78 428.613" style="fill:#fff;stroke:#000;stroke-miterlimit:10;stroke-width:0.6826679999999999px"/><rect x="374.973" y="448.51" width="41.011" height="61.954" transform="translate(-217.483 376.581) rotate(-40.954)" style="fill:#fff;stroke:#000;stroke-miterlimit:10;stroke-width:0.6826679999999999px"/><path d="M359.837,436.452a2.781,2.781,0,0,1,.114,2.068,19.976,19.976,0,0,0-.915,3.811,2.956,2.956,0,0,0,1.031,1.514c.271.072.1,1.714.8,2.059,0,0,.645,1.5.992,1.367a1.379,1.379,0,0,0,.487-.294,8.2,8.2,0,0,0,1.049.215c.476.055.942-1.688.942-1.688s.231.4.652.023.032-1.6.106-2.936a13.544,13.544,0,0,0-.228-4.106c-.306-.724-1.013-2.787-1.018-2.906l-.006-.117Z" style="fill:#fff;stroke:#000;stroke-miterlimit:10;stroke-width:0.6826679999999999px"/><path d="M362.585,444.386a21.119,21.119,0,0,1-.24,2.592" style="fill:#fff;stroke:#000;stroke-miterlimit:10;stroke-width:0.6826679999999999px"/><path d="M361.159,443.874a11.6,11.6,0,0,0-.294,2.03" style="fill:#fff;stroke:#000;stroke-miterlimit:10;stroke-width:0.6826679999999999px"/><path d="M409.132,436.561a3.159,3.159,0,0,0,.708,1.943,23.007,23.007,0,0,1,2.206,3.225,2.906,2.906,0,0,1-.245,1.724c-.188.154.587,1.611.157,2.153,0,0,.064,1.594-.269,1.579a1.21,1.21,0,0,1-.5-.113,6.177,6.177,0,0,1-.758.534c-.36.2-1.408-1.255-1.408-1.255s-.029.445-.515.231-.642-1.464-1.218-2.673a15.656,15.656,0,0,1-1.4-3.857c-.035-.769-.264-2.9-.306-3.007l-.039-.111Z" style="fill:#fff;stroke:#000;stroke-miterlimit:10;stroke-width:0.6826679999999999px"/><path d="M409.992,444.759a24.774,24.774,0,0,0,1.193,2.313" style="fill:#fff;stroke:#000;stroke-miterlimit:10;stroke-width:0.6826679999999999px"/><path d="M410.937,443.829a13.369,13.369,0,0,1,1.021,1.776" style="fill:#fff;stroke:#000;stroke-miterlimit:10;stroke-width:0.6826679999999999px"/><path d="M398.925,388.141c-.009.145-1.079,3.958-1.079,3.958l-5.155,9.559-3.539-1.149-.847-8.942-1.2-9.144,2.795-2.888Z" style="fill:#fff;stroke:#000;stroke-miterlimit:10;stroke-width:0.6826679999999999px"/><path d="M404.874,370.936a8.085,8.085,0,0,1-.058-2.715c-.05-.526-1.818-1.947-1.87-2.662a1.825,1.825,0,0,0-.238-.952s0,1.048-.331,1.146-2.288.008-2.865-1.133-1.246-1.331-1.246-1.331.627,1.429.342,1.476-1.054-1.425-1.439-1.471.721,1.234.005,1.24-1.862-.8-2.289-.753.527.714.244.807-1.527-.279-2.336-.036.047.429-.471,1.477-.8,2.148-2.039,2.727-1.415,1.755-1.5,3.425c0,0-.017.216-.154,1.379s-.353.767-.353.767c.241-1.823-.316-2.714-1.285-3.051-.02-.008-.045-.014-.07-.022a4.746,4.746,0,0,0,.1-1.464,17.982,17.982,0,0,1,1.853-5.831c.936-1.954,4.486-3.951,6.384-4.244a10.541,10.541,0,0,1,6.5,1.58,9.727,9.727,0,0,1,3.641,4.3c.265.524-.8-.219-.494.336a7.559,7.559,0,0,1,.621,3.338c-.1,1.11-.5,3.651-.5,3.651h0A9.11,9.11,0,0,0,404.874,370.936Z"/><path d="M388.779,372.181c.089-1.67.268-2.851,1.5-3.425s1.521-1.676,2.039-2.727-.338-1.236.471-1.477,2.049.134,2.336.036-.673-.76-.244-.807,1.576.754,2.289.753-.388-1.286-.005-1.24,1.149,1.523,1.439,1.471-.342-1.476-.342-1.476.669.189,1.246,1.331,2.531,1.228,2.865,1.133.331-1.146.331-1.146a1.825,1.825,0,0,1,.238.952c.052.715,1.82,2.136,1.87,2.662a8.085,8.085,0,0,0,.058,2.715,7.93,7.93,0,0,1,.013,3.145s-.367,3.147-.648,4.817-1.879,3.668-2.368,4.433c-.676,1.06-1.367,2.348-1.367,2.348a24.818,24.818,0,0,1-2.6,3.919c-1.087,1.2-4.339.639-5.25-.788a36.478,36.478,0,0,1-3.788-8.279c0-.013-.007-.031-.012-.046s-.479-2.029-.552-2.672a2.07,2.07,0,0,1-1.253-.173,3.782,3.782,0,0,1-1.313-1.943c-.075-.715.086-1.229-.005-1.374a2.323,2.323,0,0,1-.024-1.554c.23-.754.313-1.825,1.28-1.491s1.526,1.228,1.285,3.051c0,0,.214.392.353-.767S388.779,372.181,388.779,372.181Z" style="fill:#fff;stroke:#000;stroke-miterlimit:10;stroke-width:0.6826679999999999px"/><path d="M404.682,371.83a5.989,5.989,0,0,0-1.238-1.246,3.364,3.364,0,0,0-2.558-.632,4.149,4.149,0,0,0-.835.988,4.266,4.266,0,0,1,2.592.163C403.716,371.417,404.956,372.321,404.682,371.83Z"/><path d="M398.953,369.351a3.821,3.821,0,0,1-.692.967c-.25.145-.646-.242-2.13-.418a6.719,6.719,0,0,0-4.2.477s-.538-.117.477-.675a5.178,5.178,0,0,1,3.734-.9C398.024,369.028,399.074,369.135,398.953,369.351Z"/><path d="M401.43,373.07a.944.944,0,0,1,.236-.966,1.088,1.088,0,0,0,.127-.013,4.058,4.058,0,0,1,.913.193,1.62,1.62,0,0,1,.383.2s.133.766-.437.89a4.657,4.657,0,0,0-1.146-.3C401.481,373.073,401.456,373.073,401.43,373.07Z" style="fill:none;stroke:#000;stroke-miterlimit:10;stroke-width:0.6826679999999999px"/><path d="M393.623,371.107a3.546,3.546,0,0,1,1.214-.1c.076.015.156.035.234.059h0s.582.82-.292,1.091h0c-.407-.062-.821-.135-1.155-.207C393.626,371.95,393.441,371.158,393.623,371.107Z" style="fill:none;stroke:#000;stroke-miterlimit:10;stroke-width:0.6826679999999999px"/><path d="M400.522,372.865a1.7,1.7,0,0,1,1.659-.74,1.753,1.753,0,0,1,1.506,1.194s-.141.229-.623.159a14.75,14.75,0,0,0-1.557-.4C400.935,373.041,400.361,373.063,400.522,372.865Z" style="fill:none;stroke:#000;stroke-miterlimit:10;stroke-width:0.6826679999999999px"/><path d="M396.337,371.809s.484.3.269.445-.144.072-.965,0a15.954,15.954,0,0,1-2.522-.436c-.446-.14-.751-.265,0-.538A2.681,2.681,0,0,1,396.337,371.809Z" style="fill:none;stroke:#000;stroke-miterlimit:10;stroke-width:0.6826679999999999px"/><circle cx="402.242" cy="372.566" r="0.442" transform="translate(-0.8 0.866) rotate(-0.123)"/><circle cx="394.311" cy="371.43" r="0.439" transform="translate(-2.026 2.163) rotate(-0.313)"/><path d="M400.769,377.163a1.319,1.319,0,0,1,.135.936,1.249,1.249,0,0,1-1.035.792" style="fill:none;stroke:#000;stroke-miterlimit:10;stroke-width:0.6826679999999999px"/><path d="M397.105,376.233s-1,.6-1,1.158.158.871.7.866c.4,0,.758-1.122,1.309-.874s.286.869,1.29.972a1.277,1.277,0,0,0,1.3-.983,3.706,3.706,0,0,0-.2-2.2c-.191-.713-.247-1.983-.608-3.033s.88-2.1.88-2.1" style="fill:none;stroke:#000;stroke-miterlimit:10;stroke-width:0.6826679999999999px"/><path d="M398.374,377.586a1.123,1.123,0,0,1-1.124.277S397.851,376.957,398.374,377.586Z"/><path d="M400.436,377.9a.344.344,0,0,1-.031.5c-.255.253-.579.284-.652-.032C399.753,378.362,400.321,378.193,400.436,377.9Z"/><path d="M400.1,383.751a5.22,5.22,0,0,0,.313-1.906c-.145-.527-.6-1.049-.936-.951a1.528,1.528,0,0,1-1.093-.006c-.313-.18-.768-.988-1.862-.2a8.209,8.209,0,0,0-2.071,2.653c.01.072.3,1.739.523,2.667s.271,2.1,1.985,2.14,1.854-1.106,2.4-2.394A18.892,18.892,0,0,0,400.1,383.751Z" style="fill:none;stroke:#000;stroke-miterlimit:10;stroke-width:0.6826679999999999px"/><path d="M399.471,383.706a11.5,11.5,0,0,1,0-1.34c.042-.614-.338-.328-.813-.4s-.915-.471-1.389-.493-.759-.5-2.467,1.963a7.759,7.759,0,0,0,1.346,2.819c.227.217,1.99.69,2.523-.475A9.492,9.492,0,0,0,399.471,383.706Z"/><path d="M387.865,375.848a.819.819,0,0,0-.164-.483,1.227,1.227,0,0,1,0-.97c.105-.136-.216-.352-.183-.853a3.592,3.592,0,0,0-.811-1.94c-.251-.092-.625.214-.765,1.056s-.122.842,0,1.249a2.168,2.168,0,0,1-.013,1.111c-.07.535.053.48.574.549s.911.1,1.092.427S387.93,376.175,387.865,375.848Z" style="fill:none;stroke:#000;stroke-miterlimit:10;stroke-width:0.6826679999999999px"/><path d="M387.123,373.674s-.825.339-1.017.846-.405,1.053.022,1,.731-.613,1-.735.464-.126.57-.388-.1-.313-.132-.456A.379.379,0,0,0,387.123,373.674Z"/><path d="M385.944,373.906c.067.086.143-.57.191-.928s.788-1.157.891-.951c0,0-.272-.676-.548-.405a2.267,2.267,0,0,0-.61,1.571S385.8,373.73,385.944,373.906Z"/><path d="M367.248,433.741a1.479,1.479,0,0,0,1.293,1.1l.7,5.431,27.434-.283,1.789-5.795c1.435-.493-.119-7.819-.08-9.729a71.446,71.446,0,0,1,.545-7.661c.361-2.579.919-3.254.919-3.254s.934.9.3,3.228,1.4,2.679.981,3.6.571,9.025.712,11.213,2.468,3.243,2.468,3.243l1.622,3.244,3.456-.353-.071-3.1v-.353a40.894,40.894,0,0,0,.987-6.275c.071-2.4-1.916-14.526-1.916-14.526l-.587-5.036a10.458,10.458,0,0,1,.421-1.884c.4-1.407.018-1.332-.512-2.475a17.272,17.272,0,0,1-1.115-4.569,15.353,15.353,0,0,0-.774-3.188,3.091,3.091,0,0,0,.234-.981c0-.425-.317-1.831-.492-3.452s-2.111-3.16-2.994-4.014a4.268,4.268,0,0,0-1.744-1.065l0-.327a3.4,3.4,0,0,1-.5-.489A27.152,27.152,0,0,1,397.9,389.6l-.423.324s-.04.466-.119.868a3.28,3.28,0,0,1-.279,1.394,3.641,3.641,0,0,0-.43,1.3,1.213,1.213,0,0,0-.95.385c-.359.432-.856,1.2-.856,1.2v.14l-.5,0-1.909,5.109s-.519-4.739-.927-5.38.284-.408-.788-.737-1.029-1.024-1.029-1.024a5.345,5.345,0,0,0-.362-1.4,19.54,19.54,0,0,0-.324-2.953c-.266-1.189-.246-1.7-.487-2.959s-.707-3.155-.517-3.66,1.04-1.03,1.04-1.03l-.5-2.076a2.847,2.847,0,0,0-1.524.441,4.518,4.518,0,0,1-2,.861c-.69.127-1.118.437-1.547.344s-1.736,1.14-1.736,1.14-.98-.779-1.285-.394-.714.657-1.022,1.034-.883.337-1.093.79c0,0-.285.359-.12.573s-2.048.448-2.048.448a18.887,18.887,0,0,0-3.044,1.211c-.665.461-2.355.634-2.95,1.1a16.553,16.553,0,0,0-1.257,1.134,32.8,32.8,0,0,0-2.582,3.658c-.711,1.339-2.083,3.725-3.075,5.586a42.936,42.936,0,0,1-2.672,4.8c-.877,1.171-2.654,3.848-3.486,4.686a12.075,12.075,0,0,0-1.492,1.926l.216,7.4s1.8,17.087,2.712,17.791,1.34,3.456,1.34,3.456l4.02-.987-.564-3.384s1.2-3.6.845-4.8.776-7.239,0-8.65.94-5.022.094-5.091,4.679-6.689,6.322-10.428c0,0-.063,1.3-.036,2.8a29.836,29.836,0,0,1-.377,5.458c-.331,1.833-.893,4.576-1.37,7.062s-1,4.421-1.214,6.078-.733,7.862-.344,8.609" style="fill:#fff;stroke:#000;stroke-miterlimit:10;stroke-width:0.6826679999999999px"/><path d="M405.1,390.626a10.1,10.1,0,0,1-.581,4.377,21.59,21.59,0,0,0-1.509,4.416c-.3,1.336.219,1.095-.228,2.572s-1.788,5.441-1.737,6.464c0,0-2.367,6.992-2.589,12.347s1.576,12.828,0,13.392l-1.789,5.795-27.434.283-.7-5.431c.14.359-2.385.355-1.117-8.743.523-3.744,3.259-15.137,3.173-17.517a69.694,69.694,0,0,1,.434-10.532c.644-4.865-1.849-10.52-1.849-10.52" style="fill:none;stroke:#000;stroke-miterlimit:10;stroke-width:0.6826679999999999px"/><path d="M394.847,395.068a2.155,2.155,0,0,0,1.735-.89c.737-.958.65-.982,1.334-1.22s.735-.174,1.255-1.123,1.136-2.151,1.631-2.987.3-.788.16-1.145a3.018,3.018,0,0,1-.144-.905" style="fill:none;stroke:#000;stroke-miterlimit:10;stroke-width:0.6826679999999999px"/><path d="M390.588,394.155c-.069-.026-.223.336-2.036-.468s-3.8-1.892-4.277-2.844a7.681,7.681,0,0,0-2.466-2.467,5.347,5.347,0,0,1-1.937-1.819c-.506-.84-1.657-2.669-1.657-2.669" style="fill:none;stroke:#000;stroke-miterlimit:10;stroke-width:0.6826679999999999px"/><path d="M397.356,391.049s-5.134,2.4-8.249-1.7l.158,1.346s.662,1.369,3.762,1.717,4.146-.4,4.146-.4A3.569,3.569,0,0,0,397.356,391.049Z" style="fill:none;stroke:#000;stroke-miterlimit:10;stroke-width:0.6826679999999999px"/><path d="M394.945,396.415a.144.144,0,0,0,.089.182l.112.035a.143.143,0,0,0,.181-.089h0a.139.139,0,0,0-.09-.18l-.112-.04a.141.141,0,0,0-.18.092Z" style="fill:#fff;stroke:#000;stroke-miterlimit:10;stroke-width:0.6826679999999999px"/><path d="M395.141,396.088a.147.147,0,0,0,.09.184l.112.035a.141.141,0,0,0,.182-.091h0a.138.138,0,0,0-.09-.178l-.114-.039a.141.141,0,0,0-.18.089Z" style="fill:#fff;stroke:#000;stroke-miterlimit:10;stroke-width:0.6826679999999999px"/><path d="M395.384,395.488a.142.142,0,0,0,.091.181l.112.038a.146.146,0,0,0,.183-.092h0a.145.145,0,0,0-.093-.179l-.111-.038a.142.142,0,0,0-.182.09Z" style="fill:#fff;stroke:#000;stroke-miterlimit:10;stroke-width:0.6826679999999999px"/><path d="M395.512,395.21a.139.139,0,0,0,.088.18l.112.038a.142.142,0,0,0,.182-.091h0a.14.14,0,0,0-.092-.18l-.111-.039a.141.141,0,0,0-.179.092Z" style="fill:#fff;stroke:#000;stroke-miterlimit:10;stroke-width:0.6826679999999999px"/><path d="M395.659,394.937a.151.151,0,0,0,.091.184l.114.032a.141.141,0,0,0,.18-.087h0a.142.142,0,0,0-.09-.181l-.112-.038a.144.144,0,0,0-.183.09Z" style="fill:#fff;stroke:#000;stroke-miterlimit:10;stroke-width:0.6826679999999999px"/><path d="M395.264,395.768a.141.141,0,0,0,.094.178l.108.037a.142.142,0,0,0,.184-.09h0a.144.144,0,0,0-.093-.181l-.111-.036a.143.143,0,0,0-.182.092Z" style="fill:#fff;stroke:#000;stroke-miterlimit:10;stroke-width:0.6826679999999999px"/><path d="M394.215,398.225a.146.146,0,0,0,.105.174l.116.025a.143.143,0,0,0,.174-.1h0a.142.142,0,0,0-.108-.172l-.112-.03a.146.146,0,0,0-.175.106Z" style="fill:#fff;stroke:#000;stroke-miterlimit:10;stroke-width:0.6826679999999999px"/><path d="M394.387,397.884a.139.139,0,0,0,.1.171l.115.031a.143.143,0,0,0,.171-.1h0a.142.142,0,0,0-.1-.174l-.115-.03a.143.143,0,0,0-.171.106Z" style="fill:#fff;stroke:#000;stroke-miterlimit:10;stroke-width:0.6826679999999999px"/><path d="M394.579,397.266a.143.143,0,0,0,.1.173l.116.028a.142.142,0,0,0,.173-.106h0a.142.142,0,0,0-.1-.171l-.116-.027a.142.142,0,0,0-.173.1Z" style="fill:#fff;stroke:#000;stroke-miterlimit:10;stroke-width:0.6826679999999999px"/><path d="M394.681,396.979a.142.142,0,0,0,.1.171l.116.027a.142.142,0,0,0,.172-.106h0a.139.139,0,0,0-.106-.172l-.113-.03a.146.146,0,0,0-.173.109Z" style="fill:#fff;stroke:#000;stroke-miterlimit:10;stroke-width:0.6826679999999999px"/><path d="M394.807,396.689a.145.145,0,0,0,.1.175l.117.029a.144.144,0,0,0,.173-.107h0a.141.141,0,0,0-.106-.17l-.115-.028a.143.143,0,0,0-.172.1Z" style="fill:#fff;stroke:#000;stroke-miterlimit:10;stroke-width:0.6826679999999999px"/><path d="M394.481,397.55a.142.142,0,0,0,.106.172l.115.031a.142.142,0,0,0,.172-.107h0a.143.143,0,0,0-.1-.173l-.117-.029a.145.145,0,0,0-.172.106Z" style="fill:#fff;stroke:#000;stroke-miterlimit:10;stroke-width:0.6826679999999999px"/><path d="M393.578,400.1a.144.144,0,0,0,.116.165l.118.022a.141.141,0,0,0,.163-.112h0a.141.141,0,0,0-.111-.168l-.12-.022a.143.143,0,0,0-.166.115Z" style="fill:#fff;stroke:#000;stroke-miterlimit:10;stroke-width:0.6826679999999999px"/><path d="M393.73,399.747a.145.145,0,0,0,.116.168l.113.021a.142.142,0,0,0,.168-.11h0a.143.143,0,0,0-.114-.17l-.118-.022a.142.142,0,0,0-.165.113Z" style="fill:#fff;stroke:#000;stroke-miterlimit:10;stroke-width:0.6826679999999999px"/><path d="M393.89,399.118a.14.14,0,0,0,.113.168l.117.023a.143.143,0,0,0,.168-.114h0a.14.14,0,0,0-.114-.164l-.117-.024a.143.143,0,0,0-.167.112Z" style="fill:#fff;stroke:#000;stroke-miterlimit:10;stroke-width:0.6826679999999999px"/><path d="M393.976,398.824a.146.146,0,0,0,.115.169l.115.021a.141.141,0,0,0,.166-.113h0a.138.138,0,0,0-.113-.167l-.115-.023a.144.144,0,0,0-.168.113Z" style="fill:#fff;stroke:#000;stroke-miterlimit:10;stroke-width:0.6826679999999999px"/><path d="M394.085,398.535a.14.14,0,0,0,.116.166l.114.019a.138.138,0,0,0,.168-.112h0a.141.141,0,0,0-.113-.166l-.115-.022a.145.145,0,0,0-.169.114Z" style="fill:#fff;stroke:#000;stroke-miterlimit:10;stroke-width:0.6826679999999999px"/><path d="M393.81,399.409a.141.141,0,0,0,.113.167l.118.024a.144.144,0,0,0,.165-.116h0a.145.145,0,0,0-.112-.167l-.118-.022a.141.141,0,0,0-.165.113Z" style="fill:#fff;stroke:#000;stroke-miterlimit:10;stroke-width:0.6826679999999999px"/><path d="M392.984,401.969a.147.147,0,0,0,.114.168l.119.019a.138.138,0,0,0,.164-.114h0a.142.142,0,0,0-.113-.166l-.116-.023a.146.146,0,0,0-.168.116Z" style="fill:#fff;stroke:#000;stroke-miterlimit:10;stroke-width:0.6826679999999999px"/><path d="M393.136,401.618a.142.142,0,0,0,.114.167l.116.021a.141.141,0,0,0,.167-.115h0a.14.14,0,0,0-.112-.164l-.12-.021a.142.142,0,0,0-.165.112Z" style="fill:#fff;stroke:#000;stroke-miterlimit:10;stroke-width:0.6826679999999999px"/><path d="M393.3,400.991a.138.138,0,0,0,.114.164l.115.024a.142.142,0,0,0,.167-.113h0a.144.144,0,0,0-.113-.17l-.116-.019a.14.14,0,0,0-.166.113Z" style="fill:#fff;stroke:#000;stroke-miterlimit:10;stroke-width:0.6826679999999999px"/><path d="M393.382,400.7a.138.138,0,0,0,.113.166l.117.021a.138.138,0,0,0,.166-.112h0a.146.146,0,0,0-.115-.167l-.113-.019a.14.14,0,0,0-.168.111Z" style="fill:#fff;stroke:#000;stroke-miterlimit:10;stroke-width:0.6826679999999999px"/><path d="M393.493,400.405a.145.145,0,0,0,.114.168l.116.02a.144.144,0,0,0,.168-.114h0a.142.142,0,0,0-.115-.165l-.117-.023a.141.141,0,0,0-.166.114Z" style="fill:#fff;stroke:#000;stroke-miterlimit:10;stroke-width:0.6826679999999999px"/><path d="M393.214,401.281a.139.139,0,0,0,.113.164l.116.024a.141.141,0,0,0,.168-.115h0a.14.14,0,0,0-.115-.165l-.117-.025a.144.144,0,0,0-.165.116Z" style="fill:#fff;stroke:#000;stroke-miterlimit:10;stroke-width:0.6826679999999999px"/><path d="M392.786,402.569a.142.142,0,0,0,.114.163l.117.024a.142.142,0,0,0,.167-.114h0a.14.14,0,0,0-.113-.165l-.118-.022a.143.143,0,0,0-.167.115Z" style="fill:#fff;stroke:#000;stroke-miterlimit:10;stroke-width:0.6826679999999999px"/><path d="M392.7,402.879a.141.141,0,0,0,.112.164l.119.022a.145.145,0,0,0,.168-.115h0a.141.141,0,0,0-.116-.164l-.115-.022a.144.144,0,0,0-.168.116Z" style="fill:#fff;stroke:#000;stroke-miterlimit:10;stroke-width:0.6826679999999999px"/><path d="M392.9,402.275a.143.143,0,0,0,.112.168l.119.021a.143.143,0,0,0,.167-.114h0a.143.143,0,0,0-.115-.168l-.117-.019a.138.138,0,0,0-.166.111Z" style="fill:#fff;stroke:#000;stroke-miterlimit:10;stroke-width:0.6826679999999999px"/><path d="M391.55,396.451a.142.142,0,0,1-.122.16l-.117.014a.144.144,0,0,1-.163-.118h0a.145.145,0,0,1,.124-.162l.117-.018a.143.143,0,0,1,.161.124Z" style="fill:#fff;stroke:#000;stroke-miterlimit:10;stroke-width:0.6826679999999999px"/><path d="M391.414,396.1a.14.14,0,0,1-.122.159l-.118.018a.149.149,0,0,1-.161-.126h0a.146.146,0,0,1,.123-.161l.117-.014a.14.14,0,0,1,.161.123Z" style="fill:#fff;stroke:#000;stroke-miterlimit:10;stroke-width:0.6826679999999999px"/><path d="M391.287,395.462a.145.145,0,0,1-.123.161l-.116.016a.144.144,0,0,1-.162-.125h0a.145.145,0,0,1,.121-.16l.117-.016a.146.146,0,0,1,.163.124Z" style="fill:#fff;stroke:#000;stroke-miterlimit:10;stroke-width:0.6826679999999999px"/><path d="M391.213,395.162a.14.14,0,0,1-.123.159l-.116.019a.144.144,0,0,1-.162-.121h0a.143.143,0,0,1,.124-.164l.117-.015a.142.142,0,0,1,.16.121Z" style="fill:#fff;stroke:#000;stroke-miterlimit:10;stroke-width:0.6826679999999999px"/><path d="M391.117,394.863a.145.145,0,0,1-.122.164l-.118.017a.145.145,0,0,1-.161-.123h0a.141.141,0,0,1,.122-.162l.117-.013a.142.142,0,0,1,.162.117Z" style="fill:#fff;stroke:#000;stroke-miterlimit:10;stroke-width:0.6826679999999999px"/><path d="M391.354,395.752a.146.146,0,0,1-.122.163l-.118.015a.143.143,0,0,1-.162-.12h0a.138.138,0,0,1,.122-.159l.116-.021a.147.147,0,0,1,.163.122Z" style="fill:#fff;stroke:#000;stroke-miterlimit:10;stroke-width:0.6826679999999999px"/><path d="M391.936,398.364a.141.141,0,0,1-.135.147l-.119.007a.145.145,0,0,1-.152-.136h0a.143.143,0,0,1,.135-.148l.118-.009a.147.147,0,0,1,.153.139Z" style="fill:#fff;stroke:#000;stroke-miterlimit:10;stroke-width:0.6826679999999999px"/><path d="M391.829,398a.144.144,0,0,1-.135.151l-.118,0a.138.138,0,0,1-.149-.135h0a.14.14,0,0,1,.131-.149l.121-.008a.145.145,0,0,1,.149.136Z" style="fill:#fff;stroke:#000;stroke-miterlimit:10;stroke-width:0.6826679999999999px"/><path d="M391.753,397.357a.141.141,0,0,1-.133.147l-.121.008a.143.143,0,0,1-.149-.135h0a.146.146,0,0,1,.136-.152l.119,0a.142.142,0,0,1,.148.138Z" style="fill:#fff;stroke:#000;stroke-miterlimit:10;stroke-width:0.6826679999999999px"/><path d="M391.706,397.05a.145.145,0,0,1-.136.151l-.118,0a.139.139,0,0,1-.15-.132h0a.139.139,0,0,1,.136-.149l.119-.011a.144.144,0,0,1,.15.136Z" style="fill:#fff;stroke:#000;stroke-miterlimit:10;stroke-width:0.6826679999999999px"/><path d="M391.635,396.746a.146.146,0,0,1-.135.152l-.12.007a.144.144,0,0,1-.149-.135h0a.143.143,0,0,1,.135-.151l.117,0a.143.143,0,0,1,.152.131Z" style="fill:#fff;stroke:#000;stroke-miterlimit:10;stroke-width:0.6826679999999999px"/><path d="M391.8,397.651a.141.141,0,0,1-.135.148l-.12.011a.149.149,0,0,1-.151-.137h0a.144.144,0,0,1,.137-.151l.118,0a.14.14,0,0,1,.151.133Z" style="fill:#fff;stroke:#000;stroke-miterlimit:10;stroke-width:0.6826679999999999px"/><path d="M392.219,400.322a.143.143,0,0,1-.141.142l-.118,0a.143.143,0,0,1-.146-.143h0a.143.143,0,0,1,.144-.142l.117,0a.143.143,0,0,1,.143.144Z" style="fill:#fff;stroke:#000;stroke-miterlimit:10;stroke-width:0.6826679999999999px"/><path d="M392.133,399.948a.142.142,0,0,1-.143.145h-.118a.146.146,0,0,1-.143-.142h0a.143.143,0,0,1,.143-.145h.116a.143.143,0,0,1,.144.141Z" style="fill:#fff;stroke:#000;stroke-miterlimit:10;stroke-width:0.6826679999999999px"/><path d="M392.093,399.3a.146.146,0,0,1-.142.144l-.118,0a.142.142,0,0,1-.146-.141h0a.141.141,0,0,1,.144-.143l.119,0a.143.143,0,0,1,.143.143Z" style="fill:#fff;stroke:#000;stroke-miterlimit:10;stroke-width:0.6826679999999999px"/><path d="M392.062,399a.143.143,0,0,1-.144.144l-.117,0a.141.141,0,0,1-.144-.141h0a.141.141,0,0,1,.144-.143l.118,0a.145.145,0,0,1,.144.143Z" style="fill:#fff;stroke:#000;stroke-miterlimit:10;stroke-width:0.6826679999999999px"/><path d="M392.006,398.69a.149.149,0,0,1-.145.147h-.117a.146.146,0,0,1-.142-.143h0a.143.143,0,0,1,.142-.144h.117a.142.142,0,0,1,.145.141Z" style="fill:#fff;stroke:#000;stroke-miterlimit:10;stroke-width:0.6826679999999999px"/><path d="M392.116,399.6a.141.141,0,0,1-.141.144h-.117a.146.146,0,0,1-.144-.143h0a.145.145,0,0,1,.143-.146h.118a.137.137,0,0,1,.141.143Z" style="fill:#fff;stroke:#000;stroke-miterlimit:10;stroke-width:0.6826679999999999px"/><path d="M392.46,402.266a.143.143,0,0,1-.143.144l-.118,0a.142.142,0,0,1-.142-.144h0a.148.148,0,0,1,.144-.147l.117,0a.143.143,0,0,1,.142.141Z" style="fill:#fff;stroke:#000;stroke-miterlimit:10;stroke-width:0.6826679999999999px"/><path d="M392.377,401.9a.144.144,0,0,1-.144.144l-.121,0a.136.136,0,0,1-.14-.141h0a.144.144,0,0,1,.142-.145l.118,0a.141.141,0,0,1,.144.141Z" style="fill:#fff;stroke:#000;stroke-miterlimit:10;stroke-width:0.6826679999999999px"/><path d="M392.335,401.253a.139.139,0,0,1-.143.14h-.118a.138.138,0,0,1-.144-.141h0a.142.142,0,0,1,.144-.143l.119,0a.148.148,0,0,1,.142.147Z" style="fill:#fff;stroke:#000;stroke-miterlimit:10;stroke-width:0.6826679999999999px"/><path d="M392.3,400.947a.141.141,0,0,1-.141.142h-.12a.143.143,0,0,1-.143-.144h0a.142.142,0,0,1,.144-.144l.118,0a.141.141,0,0,1,.142.144Z" style="fill:#fff;stroke:#000;stroke-miterlimit:10;stroke-width:0.6826679999999999px"/><path d="M392.248,400.641a.146.146,0,0,1-.143.144l-.118,0a.141.141,0,0,1-.143-.142h0a.142.142,0,0,1,.145-.142h.118a.14.14,0,0,1,.141.143Z" style="fill:#fff;stroke:#000;stroke-miterlimit:10;stroke-width:0.6826679999999999px"/><path d="M392.36,401.551a.14.14,0,0,1-.142.143h-.12a.143.143,0,0,1-.14-.145h0a.141.141,0,0,1,.14-.142h.121a.144.144,0,0,1,.141.144Z" style="fill:#fff;stroke:#000;stroke-miterlimit:10;stroke-width:0.6826679999999999px"/><path d="M392.545,402.894a.141.141,0,0,1-.141.144h-.119a.144.144,0,0,1-.144-.144h0a.142.142,0,0,1,.141-.142l.12,0a.144.144,0,0,1,.143.145Z" style="fill:#fff;stroke:#000;stroke-miterlimit:10;stroke-width:0.6826679999999999px"/><path d="M392.489,402.589a.139.139,0,0,1-.142.141h-.12a.143.143,0,0,1-.143-.141h0a.143.143,0,0,1,.143-.145h.12a.145.145,0,0,1,.142.145Z" style="fill:#fff;stroke:#000;stroke-miterlimit:10;stroke-width:0.6826679999999999px"/><path d="M392.216,403.1s.828-.117.836,0a3.4,3.4,0,0,1-.263.683s-.663.1-.657-.043S392.15,403.111,392.216,403.1Z" style="fill:#fff;stroke:#000;stroke-miterlimit:10;stroke-width:0.6826679999999999px"/><path d="M392.611,403.86s.3-.089.181.41-.249,1.44-.249,1.44a.34.34,0,0,1-.434.357c-.457-.065-.281-.256-.183-.765s.247-1.109.294-1.273S392.31,403.846,392.611,403.86Z" style="fill:#fff;stroke:#000;stroke-miterlimit:10;stroke-width:0.6826679999999999px"/><path d="M392.306,404.42a.14.14,0,0,0,.126.157h0a.139.139,0,0,0,.157-.123l.016-.146a.145.145,0,0,0-.124-.159h0a.145.145,0,0,0-.158.128Z" style="fill:#fff;stroke:#000;stroke-miterlimit:10;stroke-width:0.6826679999999999px"/><path d="M392.018,405.674a.191.191,0,0,0,.147.23h0a.194.194,0,0,0,.228-.15l.043-.193a.193.193,0,0,0-.148-.231h0a.2.2,0,0,0-.228.15Z" style="fill:#fff;stroke:#000;stroke-miterlimit:10;stroke-width:0.6826679999999999px"/><path d="M392.592,403.274s.294-.147.2.324-.181.826-.306.816-.061-.929-.031-1.039A.131.131,0,0,1,392.592,403.274Z" style="fill:#fff;stroke:#000;stroke-miterlimit:10;stroke-width:0.6826679999999999px"/><path d="M409.192,516.514a1.877,1.877,0,0,1,1.2,2.5c-.706,1.867-4.8,1.165-5.923,0S406.654,518.559,409.192,516.514Z" style="fill:#fff;stroke:#000;stroke-miterlimit:10;stroke-width:0.6826679999999999px"/><path d="M375.768,520.751a20.272,20.272,0,0,1-3.6-1.732c-.352-.46-1.621,2.713,0,3S376.613,521.535,375.768,520.751Z" style="fill:#fff;stroke:#000;stroke-miterlimit:10;stroke-width:0.6826679999999999px"/><path d="M405.371,512.542a41.561,41.561,0,0,1,2.693,3.246s-3.074,1.678-4.041,1.589-2-2.558-2-2.558" style="fill:none;stroke:#000;stroke-miterlimit:10;stroke-width:0.6826679999999999px"/><polyline points="407.077 514.961 403.41 516.514 402.295 515.395 406.181 513.418" style="fill:none;stroke:#000;stroke-miterlimit:10;stroke-width:0.6826679999999999px"/><path d="M377.684,518.973l-2.927-2.079,1.063-1.307,3.188,2.318,1.363-1.392-3.757-1.9-2.679,3.295a26.319,26.319,0,0,0,3.024,1.641c.7.212,4.06-3.963,4.06-3.963" style="fill:none;stroke:#000;stroke-miterlimit:10;stroke-width:0.6826679999999999px"/><path d="M221.226,397.446c-3.675-10.887.18-34.039,2.64-45.486,1.7-7.924,5.718-15.446,7.792-23.288,3.632-13.73,16.492-33.148,15.061-47.458,4.268,19.593-14.784,49.438-1.6,68.55.915,1.325,4.559,1.758,6.241,4.242,1.564,2.31,1.047,4.729,2.423,7.027,3.013,5.035,6.954,6.508,8.186,14.163,1.762,10.942-3.709,23.787.886,33.376" style="fill:#fff;opacity:0.4"/><path d="M409.537,482.316a2.552,2.552,0,0,0,2.362.425,3.657,3.657,0,0,0,1.321-.753A3.251,3.251,0,0,0,414.4,479.4a5.39,5.39,0,0,0-1.564-3.363,4.436,4.436,0,0,0-3.05-1.857,3.6,3.6,0,0,0-2.538.875,3.234,3.234,0,0,0-1.187,2.061,3.4,3.4,0,0,0,.529,2.265l2.283-1.97,1.42,1.646-4.111,3.547-4.566-5.3,1.366-1.18,1.272,1.054a6.236,6.236,0,0,1,.218-1.911,4.988,4.988,0,0,1,1.578-2.231,5.51,5.51,0,0,1,4.384-1.413,6.832,6.832,0,0,1,4.525,2.608,7.226,7.226,0,0,1,1.993,4.978,5.933,5.933,0,0,1-2.241,4.45,6.007,6.007,0,0,1-3.845,1.652,4.676,4.676,0,0,1-3.361-1.251Z"/><path d="M399.394,493.388l5.221-4.5-1.808-2.1-4.793,4.133-1.477-1.715,4.792-4.132-2.188-2.536-5.461,4.71-1.531-1.775,7.478-6.448,8.511,9.866-7.236,6.241Z"/><path d="M391.816,502.97l-1.507-1.745,2.951-2.548-7-8.12,2.076-1.79,7,8.122,2.965-2.56,1.506,1.746Z"/><path d="M393.062,464.457a6.754,6.754,0,0,1,6.467-5.577,7.02,7.02,0,0,1,5.01,2.776,6.882,6.882,0,0,1,2.01,5.364,6.757,6.757,0,0,1-6.466,5.576,6.913,6.913,0,0,1-5-2.782A7.051,7.051,0,0,1,393.062,464.457Zm2.582.388a6.524,6.524,0,0,0,4.431,5.138,3.108,3.108,0,0,0,2.727-.77,3.144,3.144,0,0,0,1.175-2.589,6.452,6.452,0,0,0-4.433-5.14,3.145,3.145,0,0,0-2.735.781A3.111,3.111,0,0,0,395.644,464.845Z"/><path d="M397.773,476.071l-2.095,1.809-5.227-6.061a4.538,4.538,0,0,0-1.521-1.277,2.648,2.648,0,0,0-3.248,2.8,4.555,4.555,0,0,0,1.04,1.693l5.227,6.059-2.095,1.807-5.231-6.066A6.713,6.713,0,0,1,383,473.966q-.477-2.391,2.083-4.6t4.86-1.391a6.726,6.726,0,0,1,2.6,2.03Z"/><path d="M380.7,490.794l-1.507-1.747,2.952-2.546-7-8.12,2.077-1.789,7,8.119,2.965-2.557L388.7,483.9Z"/><path d="M459.745,474.9A37.293,37.293,0,1,0,422.452,437.6,37.293,37.293,0,0,0,459.745,474.9" style="fill:#e0a226"/><circle cx="459.745" cy="437.605" r="37.293" style="fill:none;stroke:#231f20;stroke-width:3px"/><path d="M448.169,449.506q1.629-3.873,7.692-8.2a56.469,56.469,0,0,0,6.81-5.395,7.974,7.974,0,0,0,2.377-5.556,6.155,6.155,0,0,0-1.362-4.086,4.8,4.8,0,0,0-3.9-1.629q-3.472,0-4.727,2.591a12.846,12.846,0,0,0-.855,4.754h-7.4A18.682,18.682,0,0,1,448.6,424q3.048-5.795,10.828-5.795,6.149,0,9.785,3.405a11.767,11.767,0,0,1,3.636,9.014,12.184,12.184,0,0,1-2.569,7.638,25.552,25.552,0,0,1-5.539,4.941l-3.051,2.163q-2.863,2.03-3.918,2.938a8.612,8.612,0,0,0-1.776,2.11H472.9v6.7H446.38A18.192,18.192,0,0,1,448.169,449.506Z" style="fill:#231f20"/><path d="M256.527,448.955a37.293,37.293,0,1,0-37.293-37.293,37.293,37.293,0,0,0,37.293,37.293" style="fill:#e0a226"/><circle cx="256.527" cy="411.662" r="37.293" style="fill:none;stroke:#231f20;stroke-width:3px"/><path d="M250.373,419.29a8.721,8.721,0,0,0,.747,3.846q1.385,2.805,5.035,2.8a5.57,5.57,0,0,0,3.9-1.536,5.712,5.712,0,0,0,1.666-4.42q0-3.819-3.088-5.1a15.616,15.616,0,0,0-5.538-.722v-5.448a14.307,14.307,0,0,0,5.164-.721q2.528-1.122,2.528-4.54a5.082,5.082,0,0,0-1.292-3.605,4.722,4.722,0,0,0-3.636-1.389,4.6,4.6,0,0,0-3.956,1.709,7.261,7.261,0,0,0-1.212,4.566h-7.1a19.11,19.11,0,0,1,.987-5.475,12.334,12.334,0,0,1,2.935-4.193,10.247,10.247,0,0,1,3.548-2.083,15.352,15.352,0,0,1,5.043-.721,13.409,13.409,0,0,1,8.951,2.871,9.567,9.567,0,0,1,3.4,7.705,8.519,8.519,0,0,1-2.03,5.769,6.922,6.922,0,0,1-2.671,2q1.042,0,2.991,1.789a9.559,9.559,0,0,1,2.911,7.371,12.422,12.422,0,0,1-3.4,8.64q-3.4,3.727-10.072,3.727-8.218,0-11.419-5.368a15.933,15.933,0,0,1-1.868-7.479Z" style="fill:#231f20"/><path d="M837,400.312A37.293,37.293,0,1,0,799.7,363.019,37.293,37.293,0,0,0,837,400.312" style="fill:#e0a226"/><circle cx="836.996" cy="363.019" r="37.293" style="fill:none;stroke:#231f20;stroke-width:3px"/><path d="M848.525,374.2h-4.38v8.333h-7.451V374.2h-15.33v-6.649l14.234-23.5h8.547v24.2h4.38Zm-11.831-5.955v-16.68l-9.666,16.68Z" style="fill:#231f20"/></g></g></svg>