<svg xmlns="http://www.w3.org/2000/svg" xmlns:xlink="http://www.w3.org/1999/xlink" viewBox="0 0 1152 648"><defs><clipPath id="a"><rect width="1.292" height="10.666" style="fill:none"/></clipPath><clipPath id="b"><rect width="1152" height="648" style="fill:none"/></clipPath><pattern id="c" width="1.292" height="10.666" patternTransform="matrix(-1.919, -1.279, -1.279, 1.919, 16532.354, -115.062)" patternUnits="userSpaceOnUse" viewBox="0 0 1.292 10.666"><rect width="1.292" height="10.666" style="fill:none"/><g style="clip-path:url(#a)"><line x1="0.646" y1="12.709" x2="0.646" y2="-3.291" style="fill:none;stroke:#000;stroke-miterlimit:10;stroke-width:0.25px"/></g></pattern><clipPath id="f"><rect x="101.302" y="491.991" width="163.813" height="84.214" style="fill:none"/></clipPath></defs><title>Artboard 1</title><g style="clip-path:url(#b)"><rect x="163.611" width="161.992" height="108.638" style="fill:#dcddde"/><path d="M230.381,130.574S221.233,44.3,178.6-15.7C135.943-75.713,47.62-145.1-51.892-161.979s-230.781,20.838-322.89,132.212c-66.7,80.639-60.924,166.906-60.924,166.906" style="fill:#c7c8ca"/><path d="M-455.031,166.08s-6.938,8.564-9.615,12.319c0,0-6.966,25.257,10.157,36.15,0,0,102.17,36.336,263.4,39.383s427.992-8.62,475.562-69.6-64.357-65.222-102.732-73.708S-357.339,35.414-455.031,166.08" style="fill:#c7c8ca"/><path d="M232.723,226.326c65.625-38.328,9.329-80.512,9.329-80.512l.761-8.675c-12.432-8.913-53.308-23.446-53.308-23.446l-14.977,2.343c-73.1-23.205-145.454-30.7-253.591-34.924s-253.582,20.393-253.582,20.393l-12.948-3.34c-42.77,7.554-81.74,27.718-81.74,27.718l7.738,4.691s-20.17,9.378-36.938,22.5c-16.746,13.126-8.113,25.321-8.113,25.321,13.716-24.848,60.42-44.539,60.42-44.539l-5.786-4.7a214.378,214.378,0,0,1,67.721-20.156l9.647,3.749c3.555-1.876,71.065-12.187,97.985-15.007S-70.182,92.6-45.292,93.069c24.858.467,133.518,13.127,159.908,18.281C141.021,116.5,175.05,128.7,175.05,128.7l15.725-2.819,39.181,16.4v9.183s6.55,2.434,20.984,15.675C250.94,167.142,274.222,191.169,232.723,226.326Z" style="fill:#c7c8ca"/><polygon points="1644.854 -107.082 1491.532 -107.082 1491.532 -64.137 1272.599 -64.137 1272.599 35.097 1158.585 35.097 1158.585 -121.585 771.954 -121.585 771.954 -16.703 547.963 -16.703 547.963 144.262 423.83 144.262 423.83 78.086 236.177 78.086 76.444 78.086 76.444 105.622 -48.776 105.622 -48.776 53.623 -48.776 -35.422 -259.949 -35.422 -259.949 69.434 -463.544 69.434 -463.544 -102.048 -685.546 -102.048 -905.714 -102.048 -905.714 -34.334 -972.76 -34.334 -972.76 698.104 1648.151 698.104 1644.854 -107.082" style="fill:#c7c8ca"/><rect x="784.238" y="199.599" width="287.002" height="479.159" style="fill:#a7a9ac"/><rect x="808.132" y="226.84" width="69.36" height="94.844" style="fill:#bcbec0"/><rect x="893.055" y="226.84" width="69.365" height="94.844" style="fill:#bcbec0"/><rect x="975.458" y="226.84" width="69.364" height="94.844" style="fill:#bcbec0"/><rect x="808.132" y="348.423" width="69.36" height="94.851" style="fill:#bcbec0"/><rect x="893.055" y="348.423" width="69.365" height="94.851" style="fill:#bcbec0"/><rect x="975.458" y="348.423" width="69.364" height="94.851" style="fill:#bcbec0"/><rect x="808.132" y="473.461" width="69.36" height="94.848" style="fill:#bcbec0"/><rect x="893.055" y="473.461" width="69.365" height="94.848" style="fill:#bcbec0"/><rect x="975.458" y="473.461" width="69.364" height="94.848" style="fill:#bcbec0"/><rect x="815.204" y="235.27" width="24.67" height="76.339" style="fill:#a7a9ac"/><rect x="844.884" y="235.27" width="24.665" height="76.339" style="fill:#a7a9ac"/><rect x="900.57" y="235.27" width="24.664" height="76.339" style="fill:#a7a9ac"/><rect x="930.247" y="235.27" width="24.666" height="76.339" style="fill:#a7a9ac"/><rect x="982.407" y="235.27" width="24.669" height="76.339" style="fill:#a7a9ac"/><rect x="1012.077" y="235.27" width="24.673" height="76.339" style="fill:#a7a9ac"/><rect x="815.204" y="354.725" width="24.67" height="76.344" style="fill:#a7a9ac"/><rect x="844.884" y="354.725" width="24.665" height="76.344" style="fill:#a7a9ac"/><rect x="900.57" y="354.725" width="24.664" height="76.344" style="fill:#a7a9ac"/><rect x="930.247" y="354.725" width="24.666" height="76.344" style="fill:#a7a9ac"/><rect x="982.407" y="354.725" width="24.669" height="76.344" style="fill:#a7a9ac"/><rect x="1012.077" y="354.725" width="24.673" height="76.344" style="fill:#a7a9ac"/><rect x="815.204" y="480.374" width="24.67" height="76.335" style="fill:#a7a9ac"/><rect x="844.884" y="480.374" width="24.665" height="76.335" style="fill:#a7a9ac"/><rect x="900.57" y="480.374" width="24.664" height="76.335" style="fill:#a7a9ac"/><rect x="930.247" y="480.374" width="24.666" height="76.335" style="fill:#a7a9ac"/><rect x="982.407" y="480.374" width="24.669" height="76.335" style="fill:#a7a9ac"/><rect x="1012.077" y="480.374" width="24.673" height="76.335" style="fill:#a7a9ac"/><rect x="784.171" y="199.599" width="287.069" height="17.152" style="fill:#a7a9ac"/><rect x="1070.218" y="197.088" width="311.733" height="481.671" style="fill:#a7a9ac"/><rect x="1087.946" y="224.473" width="75.342" height="95.344" style="fill:#bcbec0"/><rect x="1087.946" y="346.701" width="75.342" height="95.338" style="fill:#bcbec0"/><rect x="1087.946" y="472.389" width="75.342" height="95.351" style="fill:#bcbec0"/><rect x="-107.546" y="123.403" width="320.662" height="555.356" style="fill:#a7a9ac"/><rect x="-42.049" y="125.644" width="197.173" height="553.114" style="fill:#bcbec0"/><rect x="4.686" y="157.244" width="101.655" height="42.765" style="fill:#a7a9ac"/><rect x="116.239" y="171.501" width="32.743" height="24.432" style="fill:#a7a9ac"/><rect x="4.686" y="227.159" width="101.655" height="42.761" style="fill:#a7a9ac"/><rect x="116.239" y="241.413" width="32.743" height="24.434" style="fill:#a7a9ac"/><rect x="4.686" y="295.377" width="101.655" height="42.762" style="fill:#a7a9ac"/><rect x="116.239" y="309.631" width="32.743" height="24.433" style="fill:#a7a9ac"/><rect x="4.686" y="366.135" width="101.655" height="42.765" style="fill:#a7a9ac"/><rect x="116.239" y="380.395" width="32.743" height="24.435" style="fill:#a7a9ac"/><rect x="13.895" y="203.063" width="35.306" height="11.368" style="fill:#a7a9ac"/><rect x="61.995" y="203.063" width="35.307" height="11.368" style="fill:#a7a9ac"/><rect x="13.895" y="273.485" width="35.306" height="11.368" style="fill:#a7a9ac"/><rect x="61.995" y="273.485" width="35.307" height="11.368" style="fill:#a7a9ac"/><rect x="13.895" y="341.195" width="35.306" height="11.367" style="fill:#a7a9ac"/><rect x="61.995" y="341.195" width="35.307" height="11.367" style="fill:#a7a9ac"/><rect x="13.895" y="411.958" width="35.306" height="11.369" style="fill:#a7a9ac"/><rect x="61.995" y="411.958" width="35.307" height="11.369" style="fill:#a7a9ac"/><rect x="4.686" y="436.246" width="101.655" height="42.762" style="fill:#a7a9ac"/><rect x="116.239" y="450.501" width="32.743" height="24.437" style="fill:#a7a9ac"/><rect x="4.686" y="507.016" width="101.655" height="42.756" style="fill:#a7a9ac"/><rect x="116.239" y="521.269" width="32.743" height="24.437" style="fill:#a7a9ac"/><rect x="13.895" y="482.064" width="35.306" height="11.368" style="fill:#a7a9ac"/><rect x="61.995" y="482.064" width="35.307" height="11.368" style="fill:#a7a9ac"/><rect x="13.895" y="552.829" width="35.306" height="11.365" style="fill:#a7a9ac"/><rect x="61.995" y="552.829" width="35.307" height="11.365" style="fill:#a7a9ac"/><rect x="-117.378" y="116.235" width="340.991" height="20.912" style="fill:#a7a9ac"/><rect x="-128.643" y="108.709" width="358.814" height="15.475" style="fill:#a7a9ac"/><rect x="3.818" y="579.746" width="97.054" height="99.013" style="fill:#a7a9ac"/><rect x="184.6" y="291.786" width="17.654" height="6.243" style="fill:#a7a9ac"/><rect x="175.77" y="298.029" width="17.654" height="6.242" style="fill:#a7a9ac"/><rect x="193.425" y="298.029" width="17.655" height="6.242" style="fill:#a7a9ac"/><rect x="183.65" y="304.271" width="17.655" height="6.245" style="fill:#a7a9ac"/><rect x="174.825" y="310.516" width="17.654" height="6.24" style="fill:#a7a9ac"/><rect x="176.093" y="323" width="17.651" height="6.242" style="fill:#a7a9ac"/><rect x="167.266" y="329.242" width="17.652" height="6.245" style="fill:#a7a9ac"/><rect x="184.918" y="329.242" width="17.655" height="6.245" style="fill:#a7a9ac"/><rect x="157.492" y="335.487" width="17.654" height="6.247" style="fill:#a7a9ac"/><rect x="175.146" y="335.487" width="17.654" height="6.247" style="fill:#a7a9ac"/><rect x="166.317" y="341.735" width="17.655" height="6.243" style="fill:#a7a9ac"/><rect x="166.317" y="316.757" width="17.655" height="6.243" style="fill:#a7a9ac"/><rect x="211.08" y="247.383" width="287.241" height="431.375" style="fill:#a7a9ac"/><rect x="230.667" y="417.804" width="21.003" height="15.272" style="fill:#bcbec0"/><rect x="229.621" y="554.239" width="21" height="15.272" style="fill:#bcbec0"/><rect x="228.569" y="482.964" width="20.999" height="15.275" style="fill:#bcbec0"/><rect x="229.621" y="277.297" width="21" height="15.275" style="fill:#bcbec0"/><rect x="229.621" y="347.55" width="21" height="15.272" style="fill:#bcbec0"/><rect x="454.761" y="417.804" width="20.999" height="15.272" style="fill:#bcbec0"/><rect x="453.71" y="554.239" width="21.003" height="15.272" style="fill:#bcbec0"/><rect x="452.661" y="482.964" width="21.004" height="15.275" style="fill:#bcbec0"/><rect x="453.71" y="277.297" width="21.003" height="15.275" style="fill:#bcbec0"/><rect x="453.71" y="347.55" width="21.003" height="15.272" style="fill:#bcbec0"/><rect x="211.08" y="239.647" width="287.241" height="15.472" style="fill:#a7a9ac"/><rect x="296.879" y="551.245" width="99.583" height="96.755" style="fill:#bcbec0"/><rect x="277.833" y="262.535" width="139.918" height="62.871" style="fill:#bcbec0"/><rect x="277.833" y="333.42" width="139.918" height="62.871" style="fill:#bcbec0"/><rect x="277.833" y="403.423" width="139.918" height="62.868" style="fill:#bcbec0"/><rect x="277.833" y="474.572" width="139.918" height="62.867" style="fill:#bcbec0"/><rect x="275.466" y="375.041" width="148.055" height="24.432" style="fill:#a7a9ac"/><rect x="333.225" y="380.132" width="35.869" height="11.202" style="fill:#bcbec0"/><rect x="272.321" y="446.307" width="148.054" height="24.439" style="fill:#a7a9ac"/><rect x="330.068" y="450.386" width="35.878" height="11.198" style="fill:#bcbec0"/><rect x="270.222" y="514.526" width="148.056" height="24.438" style="fill:#a7a9ac"/><rect x="327.969" y="520.639" width="35.877" height="11.202" style="fill:#bcbec0"/><rect x="273.372" y="305.807" width="148.049" height="24.432" style="fill:#a7a9ac"/><rect x="331.122" y="311.915" width="35.876" height="11.202" style="fill:#bcbec0"/><rect x="284.22" y="380.132" width="35.874" height="11.202" style="fill:#bcbec0"/><rect x="281.07" y="450.386" width="35.873" height="11.198" style="fill:#bcbec0"/><rect x="278.97" y="520.639" width="35.874" height="11.202" style="fill:#bcbec0"/><rect x="282.122" y="311.915" width="35.872" height="11.202" style="fill:#bcbec0"/><rect x="381.873" y="380.132" width="35.879" height="11.202" style="fill:#bcbec0"/><rect x="378.725" y="450.386" width="35.873" height="11.198" style="fill:#bcbec0"/><rect x="376.62" y="520.639" width="35.878" height="11.202" style="fill:#bcbec0"/><rect x="379.776" y="311.915" width="35.872" height="11.202" style="fill:#bcbec0"/><rect x="496.723" y="248.876" width="287.243" height="431.375" style="fill:#a7a9ac"/><rect x="517.81" y="417.804" width="21.008" height="15.272" style="fill:#bcbec0"/><rect x="516.766" y="554.239" width="21.002" height="15.272" style="fill:#bcbec0"/><rect x="515.712" y="482.964" width="20.998" height="15.275" style="fill:#bcbec0"/><rect x="516.766" y="277.297" width="21.002" height="15.275" style="fill:#bcbec0"/><rect x="516.766" y="347.55" width="21.002" height="15.272" style="fill:#bcbec0"/><rect x="741.905" y="417.804" width="20.998" height="15.272" style="fill:#bcbec0"/><rect x="740.855" y="554.239" width="21.003" height="15.272" style="fill:#bcbec0"/><rect x="739.803" y="482.964" width="21.007" height="15.275" style="fill:#bcbec0"/><rect x="740.855" y="277.297" width="21.003" height="15.275" style="fill:#bcbec0"/><rect x="740.855" y="347.55" width="21.003" height="15.272" style="fill:#bcbec0"/><rect x="498.223" y="239.647" width="287.243" height="15.472" style="fill:#a7a9ac"/><rect x="584.026" y="551.245" width="99.585" height="96.755" style="fill:#bcbec0"/><rect x="564.981" y="262.535" width="139.912" height="62.871" style="fill:#bcbec0"/><rect x="564.981" y="333.42" width="139.912" height="62.871" style="fill:#bcbec0"/><rect x="564.981" y="403.423" width="139.912" height="62.868" style="fill:#bcbec0"/><rect x="564.981" y="474.572" width="139.912" height="62.867" style="fill:#bcbec0"/><rect x="562.612" y="375.041" width="148.055" height="24.432" style="fill:#a7a9ac"/><rect x="620.365" y="380.132" width="35.873" height="11.202" style="fill:#bcbec0"/><rect x="559.467" y="446.307" width="148.055" height="24.439" style="fill:#a7a9ac"/><rect x="617.212" y="450.386" width="35.875" height="11.198" style="fill:#bcbec0"/><rect x="557.366" y="514.526" width="148.048" height="24.438" style="fill:#a7a9ac"/><rect x="615.11" y="520.639" width="35.879" height="11.202" style="fill:#bcbec0"/><rect x="560.515" y="305.807" width="148.052" height="24.432" style="fill:#a7a9ac"/><rect x="618.265" y="311.915" width="35.874" height="11.202" style="fill:#bcbec0"/><rect x="571.37" y="380.132" width="35.87" height="11.202" style="fill:#bcbec0"/><rect x="568.208" y="450.386" width="35.883" height="11.198" style="fill:#bcbec0"/><rect x="566.113" y="520.639" width="35.874" height="11.202" style="fill:#bcbec0"/><rect x="569.265" y="311.915" width="35.878" height="11.202" style="fill:#bcbec0"/><rect x="669.018" y="380.132" width="35.876" height="11.202" style="fill:#bcbec0"/><rect x="665.868" y="450.386" width="35.874" height="11.198" style="fill:#bcbec0"/><rect x="663.763" y="520.639" width="35.879" height="11.202" style="fill:#bcbec0"/><rect x="666.922" y="311.915" width="35.87" height="11.202" style="fill:#bcbec0"/><polygon points="857.089 592.126 893.765 569.283 564.256 -124.503 528.226 -105.959 857.089 592.126" style="fill:#fff;stroke:#000;stroke-miterlimit:10;stroke-width:3px"/><path d="M627.795,788.655c-.9-12.053,1.3-9.669,11.443-26.078,10.124-16.442,8.2-15,6.807-22.543s-3.836-15.944,5.589-33.884,33.223-38.967,40.552-75.362c7.354-36.324,21.48-62.028,25.933-68.876,4.428-6.819,1.669-7.6,12.253-16.822,10.609-9.243,9.729-28.175,5.153-45.766-4.593-17.631-10.173-38.778-4.177-52.348a242.85,242.85,0,0,0,12.175-32.736c3.808-12.6,8.781-30.847,4.859-35.392,0,0-3.561-5.085,3-9.952l4.878-1.176s23.737-3.159,24.151,20.245c.37,23.433-4.028,23.446-4.009,25.9,0,2.436,6.7,19.587,6.7,19.587S791.1,424.34,798,421.333c6.93-2.978,9.586-9.95,9.749-11.45s-7.7-3.685-10.215-10.013c-2.451-6.3,3.8-24.831,3.087-28.616-.708-3.743-4.566-10.253-4.566-10.253s7.239-5.993,20.371-1.55c13.154,4.474,21.371,10.99,12.089,27.244,0,0,13.758-4.007,19.455.6,5.671,4.644,9.205,14.141.962,24.294l-2.09,2.926s-.3,5.446,7.624,3.209c7.944-2.235,17.311.585,13.325,11.257-3.979,10.693-7.364,13.878-7.364,13.878s11.922-4.583,9.721,9.618c-2.219,14.225-7.812,36.839-12.252,41.264l-7.274-15.289L814.48,496.117s16.025,22.449,14.163,33.628c-1.9,11.21-4.541,8.824-7.386,17.3-2.809,8.474-1.264,2.5-1.264,2.5s10.563-9.39,15.3-2.846c4.71,6.526,5.687,19.05.531,29.02,0,0,11.372,6.858,6.732,22.25-4.631,15.34,4.813,9.32,6.058,15.991,1.223,6.675,2.243,21.669-8.565,29.658-10.824,8.012-5.763,26.009-14.236,51.407-8.483,25.37-27.28,82.943-34.3,97.2-7.041,14.31-3.1,37.934-20.186,50.033s-17.909,33.867-26.955,49.088-2.311,25.494-25.679,37.012-11.238,15.209-42.041,29.352" style="fill:#fff;stroke:#000;stroke-miterlimit:10;stroke-width:3px"/><polygon points="348.102 326.914 949.572 55.32 618.265 -574.649 40.618 -298.348 348.102 326.914" style="fill:#fff;stroke:#000;stroke-miterlimit:10;stroke-width:3px"/><path d="M860.429,442.86s-60.083,33.822-62.69,38.809c-2.59,5-4.154,24.666,16.742,14.448" style="fill:none;stroke:#000;stroke-miterlimit:10;stroke-width:3px"/><path d="M846.844,414.516s-35.127,26.337-49.937,36.476c-14.83,10.117-11.9,32.994.832,30.677" style="fill:none;stroke:#000;stroke-miterlimit:10;stroke-width:3px"/><path d="M795.069,422.931s-16.013,12.375-17.382,21.523c-1.411,9.1,5.106,16.583,18.161,7.3" style="fill:none;stroke:#000;stroke-miterlimit:10;stroke-width:3px"/><path d="M828.517,386.7s-16.865,22.833-20.766,23.188" style="fill:none;stroke:#000;stroke-miterlimit:10;stroke-width:3px"/><path d="M822.259,394.827s-7.06-13.55-12.681-8.361a24.45,24.45,0,0,0-6.89,12.675l7.786,9.057Z" style="fill:none;stroke:#000;stroke-miterlimit:10;stroke-width:3px"/><path d="M819.141,553.023s-40.99,9.29-83.117-15.922" style="fill:#fff;stroke:#000;stroke-miterlimit:10;stroke-width:3px"/><path d="M835.823,575.725s-41.223,24.226-117.7-13.813" style="fill:#fff;stroke:#000;stroke-miterlimit:10;stroke-width:3px"/><path d="M468.9,109.175q-9.589,29.948-46.862,48.444-37.317,18.484-67.087,8.058-38.855-11.612-62.171-58.242-23.82-47.513-9.313-84.467Q293-6.97,330.326-25.447q37.274-18.5,67.076-8.078,38.24,10.808,62.064,58.306Q482.794,71.363,468.9,109.175Zm-35.88-15.023q4.738-22.118-9.887-51.367-14.594-29.1-35.237-38.7Q367.24-5.5,345.662,5.178q-21.589,10.7-26.5,32.917-4.95,22.242,9.7,51.44,14.648,29.225,35.44,38.662,20.782,9.5,42.388-1.221Q428.278,116.274,433.022,94.152Z"/><path d="M443.553-75.019,480.47-93.349,533.7,12.91c5.944,11.879,11.732,19.849,17.284,23.93q13.856,11.29,35.964.306,21.965-10.872,21.267-28.679.111-10.287-8.789-28.146L546.188-125.912l36.91-18.3L636.362-37.87Q650.168-10.314,649.287,9.32q-1.9,36.11-47,58.482-45.1,22.389-75.332,2.2Q510.632,58.877,496.823,31.3Z"/><path d="M445.707,492.268c.232,2.5-8.033,70.289-8.033,70.289l-63.082,176.45-63.67-10.3L272.816,578.527l-44.7-152.7,40.259-56.554Z" style="fill:#fff;stroke:#000;stroke-miterlimit:10;stroke-width:3px"/><path d="M502.2,186.171c-10.857-31.575-5.939-37.356-8.16-46.116-2.242-8.841-36.289-28.412-39.062-40.46-2.7-12.078-6.595-15.6-6.595-15.6s2.765,17.856-2.649,20.388c-5.47,2.495-39.174,6.143-52.061-11.782-12.893-17.941-24.863-19.413-24.863-19.413s14.513,22.7,9.762,24.267c-4.822,1.641-21.82-21.516-28.532-21.286-6.669.22,15.605,19.143,3.366,21.122-12.227,1.894-34.015-8.824-41.206-6.819-7.238,1.928,10.915,10.779,6.3,13.1-4.654,2.422-26.9-.749-40.114,5.52-13.223,6.236,1.944,7.182-4.163,26.417-6.1,19.27-8.066,38.7-27.734,51.827-19.662,13.03-19.61,33.622-16.724,62.317,0,0,.286,3.723,1,23.905.673,20.123-4.031,14.011-4.031,14.011-.679-31.708-12.585-45.42-30.061-48.619-.362-.084-.81-.114-1.253-.185,0,0,1.247-3.856-2.123-25.215-3.39-21.293,5.384-68.523,16.354-104.244,10.887-35.766,66.416-79.122,98.164-89.1,31.723-9.974,71.027-6.221,115.6,9.847,44.636,16.078,73.711,63.708,73.711,63.708,5.924,8.238-14.262-1.629-7.577,7.021,6.724,8.6,18.361,36.135,19.442,55.261,1.216,19.182,1.021,63.551,1.021,63.551l-.026,0A156.538,156.538,0,0,0,502.2,186.171Z"/><path d="M229.275,248.962c-2.886-28.695-2.938-49.287,16.724-62.318,19.667-13.121,21.632-32.556,27.734-51.826,6.106-19.235-9.06-20.181,4.163-26.417,13.211-6.269,35.46-3.1,40.113-5.52,4.614-2.325-13.54-11.176-6.3-13.1,7.192-2,28.98,8.713,41.207,6.82,12.24-1.979-10.035-20.9-3.366-21.122,6.712-.229,23.71,22.928,28.532,21.286,4.751-1.566-9.761-24.267-9.761-24.267s11.97,1.472,24.862,19.413c12.888,17.925,46.591,14.277,52.061,11.782,5.414-2.531,2.649-20.388,2.649-20.388s3.9,3.522,6.6,15.6c2.774,12.048,36.819,31.619,39.062,40.46,2.222,8.76-2.7,14.542,8.161,46.117,10.882,31.559,8.526,53.557,8.526,53.557s2.024,54.606,1.605,83.806C511.483,352,489.324,390.29,482.97,404.6c-9.488,21.462-9.185,21-17.223,43.6C455.719,471.98,447,498.6,431.541,521.83c-15.469,23.262-72.652,22.276-92.017.349-19.282-21.781-67.566-85.892-86.733-131.154-.1-.208-.21-.516-.323-.75,0,0-13.562-33.333-16.5-44.091,0,0-14.368,4.484-21.918.343-7.53-4.111-24.45-17.652-27.629-29.671-3.165-11.987-1.774-21.182-3.719-23.4-1.887-2.231-6.485-13.079-4.5-26.42,1.941-13.45.544-31.925,17.986-28.772,17.476,3.2,29.383,16.912,30.062,48.619,0,0,4.7,6.112,4.03-14.011C229.56,252.686,229.275,248.962,229.275,248.962Z" style="fill:#fff;stroke:#000;stroke-miterlimit:10;stroke-width:3px"/><path d="M501.278,199.17a103.857,103.857,0,0,0-24.5-17.988c-17.069-8.967-40.465-8-45.5-4.048-5.018,3.869-11.7,19.035-11.7,19.035s13.47-8.13,44.841-4.025C483.632,194.666,507.263,206.822,501.278,199.17Z"/><path d="M396.589,171.958s-5.4,15.241-9.3,18.293c-3.907,3.138-11.708-2.433-37.6-1.533-25.858.946-49.643,3.3-70.611,19.138,0,0-9.536-.582,6.393-12.75,15.956-12.262,28.817-24.031,61.6-25.086C379.822,168.9,398.086,167.961,396.589,171.958Z"/><path d="M432.743,227.739s8.434-18.181,26.46-16.973c18.079,1.179,23.13,7.309,28.95,16.4,0,0-1.806,4.279-10.255,4.35-8.422.078-17.864-3.721-27.727-2.77C440.281,229.648,430.5,231.525,432.743,227.739Z" style="fill:none;stroke:#000;stroke-miterlimit:10;stroke-width:3px"/><path d="M358.263,220.715s9.086,3.893,5.791,6.886c-3.264,3.04-2.277,1.605-16.526,2.616s-36.286.4-44.362-.818c-8.013-1.208-13.564-2.536-1.435-9.164C313.857,213.722,329.045,202.861,358.263,220.715Z" style="fill:none;stroke:#000;stroke-miterlimit:10;stroke-width:3px"/><path d="M453.637,220.211a8.321,8.321,0,1,0,6.927-9.415A8.279,8.279,0,0,0,453.637,220.211Z"/><path d="M314.977,221.607a9.483,9.483,0,1,0,7.9-10.79A9.467,9.467,0,0,0,314.977,221.607Z"/><path d="M448.31,300.341s5.932,7.218,4.779,15.588c-1.134,7.947-8.436,14.16-15.645,16.218" style="fill:none;stroke:#000;stroke-miterlimit:10;stroke-width:3px"/><path d="M383.1,294.112s-15.548,12.845-14.03,22.358c1.523,9.564,5,14.432,14.213,12.936,6.928-1.062,10.031-21.112,20.111-18.333,10.047,2.841,7.2,14.064,24.663,13.172,17.787-.883,19.69-20.157,19.69-20.157,2.8-11.864-4.062-25.359-9.244-37.024-5.151-11.647-9.465-33.156-18.419-50.094-9.02-17.007,9.544-38.029,9.544-38.029" style="fill:none;stroke:#000;stroke-miterlimit:10;stroke-width:3px"/><path d="M408.414,313.829s-7.352,10.145-18.53,7.681C389.884,321.51,397.789,304.487,408.414,313.829Z"/><path d="M444.558,313.761a5.912,5.912,0,0,1,.769,8.52c-3.706,4.983-9.17,6.361-11.249,1.164C434.078,323.445,443.367,319.076,444.558,313.761Z"/><path d="M223.788,311.8s-.8-5.162-4.086-7.81c-3.207-2.574-4.071-13.943-2.61-16.52s-4.632-5.42-5.385-14.044c-.742-8.594-14.484-29.937-19.016-30.944-4.541-.905-10.133,5.285-10.312,20s.129,14.663,3.378,21.274c3.244,6.725,2.452,9.622,2.708,18.973.217,9.3,2.174,8.05,11.277,7.846,9.049-.143,15.884-.613,19.84,4.407C223.483,319.994,225.771,317.207,223.788,311.8Z" style="fill:none;stroke:#000;stroke-miterlimit:10;stroke-width:3px"/><path d="M205.337,276.7s-13.244,7.943-15.19,17.086c-1.985,9.146-4.165,19,3.017,16.946,7.229-2.095,10.911-12.372,15.191-15.156,4.221-2.927,7.612-3.365,8.737-8.107,1.109-4.718-2.489-5.071-3.462-7.422C212.6,277.689,209.017,275.133,205.337,276.7Z" style="fill:url(#c)"/><path d="M185.757,283.762c1.375,1.285.937-10.1.832-16.318-.034-6.247,10.448-21.79,12.744-18.548,0,0-6.447-10.8-10.461-5.468-4.023,5.268-7,11.925-6.3,28.382C182.571,271.81,182.816,281.125,185.757,283.762Z" style="fill:url(#c)"/><path d="M23.412,1352.627c6.479,16.68,25.061,15.365,25.061,15.365l26.252,90.726,469.208-76.862,15.361-103.465c23.28-12.172-22.68-132.953-27.059-165.608-4.378-32.639-10.257-87.067-10.876-132-.618-44.908,7.155-57.873,7.155-57.873s18.368,12.908,13.63,54.241c-4.716,41.309,31.117,41.966,26.3,58.7s33.6,152.319,41.788,189.236c8.178,36.878,50.834,48.793,50.834,48.793l36.352,51.034,58.264-15.087-9.4-52.689-.934-6.027s5.475-68.5.344-109.542c-5.105-41.05-71.17-242.544-71.17-242.544l-23.34-84.293s-.848-8.151,2.248-33.21c3.1-25.027-3.207-22.753-15.3-40.848-12.082-18.068-18.967-37.764-31.168-74.949-12.194-37.215-21.665-52.309-21.665-52.309s2.556-10,1.418-17.345c-1.182-7.231-10.272-30.372-17.535-57.545-7.25-27.141-44.51-48.313-61.883-60.543C489.864,465.753,474.6,464.41,474.6,464.41l-.9-5.567c-4.085-1.983-9.826-7.03-9.826-7.03s-20.7,53.355-31.844,67.959l-6.389,6.635s.553,8.041.261,15.105c-.239,7.159,2.872,9.886-1.106,24.491-5.054,18.46-3.92,23.359-3.92,23.359s-10.328.8-15.25,9.053c-5.019,8.3-11.506,22.636-11.506,22.636l.394,2.375-8.579,1.349-19.212,92.091s-21.4-79.41-30.083-89.254c-8.709-9.894,3.789-7.7-15.447-10.494-19.293-2.822-20.335-14.761-20.335-14.761s-5.31-17.806-9.894-22.911c0,0-5.617-29.915-13.35-49.479-7.7-19.576-8.695-28.349-16.147-49.154-7.527-20.742-20.44-51.918-18.511-61.024,1.9-9.065,15.089-20.291,15.089-20.291l-14.086-34.064s-17.577,2.846-24.95,11.525c-7.437,8.635-20.491,15.988-31.989,19.931-11.493,3.977-17.992,10.393-25.59,9.922-7.652-.466-26.738,23.983-26.738,23.983s-18.843-10.71-23.045-3.334c-4.267,7.383-10.495,13.077-14.769,20.306-4.279,7.319-14.232,8.059-16.634,16.336,0,0-3.928,6.87-.538,10.082,3.476,3.2-33.9,13.017-33.9,13.017S7.021,506.214-3.144,515.838c-10.166,9.6-38.668,16.98-47.617,26.549a285.751,285.751,0,0,0-18.546,22.624s-25.957,44.494-34.577,69.128c-8.636,24.686-25.842,68.965-37.928,103.272-12.1,34.419-21.2,66.6-33.091,88.892-11.934,22.256-35.315,72.543-47.349,89.006-11.988,16.425-20.48,36.741-20.48,36.741l23.224,125.476s75.856,286.5,93.413,296.095c17.579,9.6,32.076,55.383,32.076,55.383l66.259-27.381-18.592-56.19s11.036-64.431,1.822-83.958c-9.194-19.5-5.808-125.42-22.832-147.433-16.994-21.977,2.854-88.063-11.822-87.006-14.68.985,62.494-126.3,80.782-194.323,0,0,2.354,22.335,6.774,47.845,5.5,31.786,8.657,66.791,7.948,94.009-.842,32.113-3.228,80.342-4.83,123.967-1.578,43.606-5.521,77.98-4.762,106.777s8.188,135.927,16.827,147.635" style="fill:#fff;stroke:#000;stroke-miterlimit:10;stroke-width:3px"/><path d="M558.1,518.406c1.6,1.974,10,47.724,1.607,76.121a370.551,370.551,0,0,0-14.195,79.226c-1.685,23.565,6.646,18.08,2.885,44.439-3.732,26.4-16.27,97.436-12.692,114.723,0,0-22.1,125.388-11.763,217.225s60.85,214.495,35.348,228.252l-15.361,103.465L74.725,1458.718l-26.252-90.726c3.35,5.756-39.925,12.3-42.2-146.084-.924-65.184,15.872-266.534,8.129-306.868C13.225,909.07-4.252,818.99-5.973,734.4-7.78,649.79-65.418,559.949-65.418,559.949" style="fill:none;stroke:#000;stroke-miterlimit:10;stroke-width:3px"/><path d="M394.124,621.05s17.333-1.466,27.375-19.717c10.1-18.262,8.543-18.449,19.633-24.293,11.126-5.967,12.132-4.888,18.542-22.437,6.375-17.71,13.779-39.645,20.063-55.194,6.309-15.6,3.131-14.232-.29-19.945-3.372-5.684-4.848-15.055-4.848-15.055" style="fill:none;stroke:#000;stroke-miterlimit:10;stroke-width:3px"/><path d="M318.757,616.671c-1.255-.267-2.935,6.314-36.106-2.628-33.244-8.962-70.068-22.262-80.77-37.235-10.758-14.893-34.37-29.456-48.752-35.566-14.35-6.066-27.156-12.912-37.985-25.923-10.879-12.983-35.433-41.135-35.433-41.135" style="fill:none;stroke:#000;stroke-miterlimit:10;stroke-width:3px"/><path d="M426.5,545.959s-81.615,54.407-145.808-7.383l6.253,22.516s14.958,21.6,68.981,19.384c53.979-2.243,69.976-17.647,69.976-17.647S427.692,552.608,426.5,545.959Z" style="fill:none;stroke:#000;stroke-miterlimit:10;stroke-width:3px"/><path d="M399.358,643.747a2.492,2.492,0,0,0,2,2.859l2.018.306a2.486,2.486,0,0,0,2.859-1.989h0a2.4,2.4,0,0,0-2.021-2.828l-2.02-.388a2.444,2.444,0,0,0-2.837,2.039Z" style="fill:#fff;stroke:#000;stroke-miterlimit:10;stroke-width:3px"/><path d="M401.849,637.656a2.544,2.544,0,0,0,2.031,2.891l2.018.3a2.438,2.438,0,0,0,2.871-2.023h0a2.387,2.387,0,0,0-2.017-2.792l-2.052-.367a2.436,2.436,0,0,0-2.85,1.989Z" style="fill:#fff;stroke:#000;stroke-miterlimit:10;stroke-width:3px"/><path d="M404.433,626.8a2.447,2.447,0,0,0,2.03,2.839l2.025.354a2.528,2.528,0,0,0,2.893-2.041h0a2.5,2.5,0,0,0-2.061-2.8l-2-.359a2.454,2.454,0,0,0-2.883,2.01Z" style="fill:#fff;stroke:#000;stroke-miterlimit:10;stroke-width:3px"/><path d="M405.894,621.716a2.411,2.411,0,0,0,1.982,2.834l2.023.353a2.466,2.466,0,0,0,2.88-2.027h0a2.418,2.418,0,0,0-2.043-2.819l-2.011-.375a2.45,2.45,0,0,0-2.831,2.034Z" style="fill:#fff;stroke:#000;stroke-miterlimit:10;stroke-width:3px"/><path d="M407.685,616.669a2.6,2.6,0,0,0,2.048,2.89l2.036.255a2.445,2.445,0,0,0,2.857-1.958h0a2.465,2.465,0,0,0-2.027-2.842l-2.015-.355a2.487,2.487,0,0,0-2.9,2.009Z" style="fill:#fff;stroke:#000;stroke-miterlimit:10;stroke-width:3px"/><path d="M403.12,631.872a2.425,2.425,0,0,0,2.073,2.782l1.956.349a2.464,2.464,0,0,0,2.907-2.016h0a2.491,2.491,0,0,0-2.064-2.834l-2-.323a2.479,2.479,0,0,0-2.87,2.042Z" style="fill:#fff;stroke:#000;stroke-miterlimit:10;stroke-width:3px"/><path d="M397.723,648.767a2.51,2.51,0,0,0,2.232,2.71l2.076.19a2.5,2.5,0,0,0,2.68-2.284h0a2.435,2.435,0,0,0-2.265-2.618l-2.05-.179a2.467,2.467,0,0,0-2.674,2.181Z" style="fill:#fff;stroke:#000;stroke-miterlimit:10;stroke-width:3px"/><path d="M338.036,647.592a2.409,2.409,0,0,1-1.663,3.032l-1.976.625a2.579,2.579,0,0,1-3.092-1.724h0a2.521,2.521,0,0,1,1.682-3.069l1.971-.538a2.423,2.423,0,0,1,3.078,1.674Z" style="fill:#fff;stroke:#000;stroke-miterlimit:10;stroke-width:3px"/><path d="M334.176,637.107a2.506,2.506,0,0,1-1.682,3.071l-1.952.569a2.5,2.5,0,0,1-3.1-1.7h0a2.489,2.489,0,0,1,1.658-3.052l1.959-.57a2.537,2.537,0,0,1,3.121,1.684Z" style="fill:#fff;stroke:#000;stroke-miterlimit:10;stroke-width:3px"/><path d="M332.119,632.191a2.409,2.409,0,0,1-1.678,3.034l-1.938.639a2.511,2.511,0,0,1-3.089-1.64h0A2.464,2.464,0,0,1,327.1,631.1l1.961-.558a2.451,2.451,0,0,1,3.06,1.646Z" style="fill:#fff;stroke:#000;stroke-miterlimit:10;stroke-width:3px"/><path d="M329.685,627.35a2.5,2.5,0,0,1-1.66,3.115l-1.971.594a2.52,2.52,0,0,1-3.078-1.676h0a2.439,2.439,0,0,1,1.663-3.083l1.966-.52a2.466,2.466,0,0,1,3.079,1.57Z" style="fill:#fff;stroke:#000;stroke-miterlimit:10;stroke-width:3px"/><path d="M336.094,641.875a2.518,2.518,0,0,1-1.653,3.1l-1.976.561a2.489,2.489,0,0,1-3.092-1.621h0a2.374,2.374,0,0,1,1.668-3.034l1.939-.659a2.543,2.543,0,0,1,3.113,1.657Z" style="fill:#fff;stroke:#000;stroke-miterlimit:10;stroke-width:3px"/><path d="M454.322,414.362s4.263-24.832.329-33.309c-3.865-8.612-13.074-16.3-18.536-13.757-5.431,2.483-12.944,4.93-18.741,2.769-5.836-2.237-15.767-14.824-32.426,1.53-16.618,16.335-28.91,49.479-28.479,50.656.357,1.209,9.794,28.848,16,44.084,6.163,15.262,10.184,35.038,39.656,31.254,29.486-3.856,28.848-23.725,34.715-47.1C452.771,427.085,454.322,414.362,454.322,414.362Z" style="fill:#fff;stroke:#000;stroke-miterlimit:10;stroke-width:3px"/><path d="M443.348,415.259a197,197,0,0,1-3.586-22.829c-.895-10.579-6.657-4.7-14.98-4.638-8.371.111-16.916-5.62-25.088-4.759-8.158.86-14.32-6.493-37.077,39.933,0,0,14.5,33.3,30.5,44.519,4.459,3.092,35.907,6.522,41.967-14.715C443.664,422.674,443.348,415.259,443.348,415.259Z" style="stroke:#000;stroke-miterlimit:10;stroke-width:3px;fill:url(#c)"/><path d="M428.446,397.08s8.889,15.846,1.31,32.969-11.479,17.72-19.147,20.291-25.8,9.068-31.534,1.888-12.4-19.377-12.4-19.377-4.119-9.547-4.354-11.064,6.347-12,9.437-18.675a25.271,25.271,0,0,1,9.407-10.233Z" style="fill:#fff;stroke:#000;stroke-miterlimit:10;stroke-width:3px"/><path d="M399.693,383.033s4.138,23.54,4.517,44.571" style="fill:#fff;stroke:#000;stroke-miterlimit:10;stroke-width:3px"/><path d="M430.123,387.851l.937,5.164s.258,4.506-6.344,4.489-10.769-.441-10.769-.441-2.322.753-2.022-5.452c.125-2.6.08-5.176.08-5.176S421.856,389.245,430.123,387.851Z" style="fill:#fff;stroke:#000;stroke-miterlimit:10;stroke-width:3px"/><path d="M391.11,384.522l1.279,10.488s.3,3.539,6.9,3.444c2.747-.036,9.568-1.02,9.568-1.02s3.073-.45,3.065-5.824a30.367,30.367,0,0,0-.651-5.528A24.05,24.05,0,0,0,391.11,384.522Z" style="fill:#fff;stroke:#000;stroke-miterlimit:10;stroke-width:3px"/><path d="M391.11,384.522l1.233,10.193a27.625,27.625,0,0,1-11.182-1.836S386.748,385.115,391.11,384.522Z" style="fill:#fff;stroke:#000;stroke-miterlimit:10;stroke-width:3px"/><path d="M430.927,387.727l-.121,8.315s3.712.668,7.918-2.646C438.724,393.4,440.482,385.4,430.927,387.727Z" style="fill:#fff;stroke:#000;stroke-miterlimit:10;stroke-width:3px"/><path d="M409.243,466.975c.451-.185,8.465-3.93,9.851-2.441s1.643,3.159-3.027,4.96-9.019,3.551-9,2.617S406.575,468.051,409.243,466.975Z" style="fill:#fff;stroke:#000;stroke-miterlimit:10;stroke-width:3px"/><path d="M396.325,468.8c-.481-.433-1.6-2.852,1.375-2.844s10.864.61,10.193,2.016-.418,4.852-3.571,4.1S398.241,470.522,396.325,468.8Z" style="fill:#fff;stroke:#000;stroke-miterlimit:10;stroke-width:3px"/><path d="M390.19,462.794s6.055,1.34,4.815,3.508S386.515,462.889,390.19,462.794Z" style="fill:#fff;stroke:#000;stroke-miterlimit:10;stroke-width:3px"/><path d="M419.62,463.864s3.409-2.679,5.791-2.215,2.707,1.5.454,2.933S419.4,466.872,419.62,463.864Z" style="fill:#fff;stroke:#000;stroke-miterlimit:10;stroke-width:3px"/><path d="M427.227,457.4c.233-.6,4.767-3.307,3.518.343S424.506,464.326,427.227,457.4Z" style="fill:#fff;stroke:#000;stroke-miterlimit:10;stroke-width:3px"/><path d="M429.921,455.893s.25-7.186,2.936-6.886S434.122,457.718,429.921,455.893Z" style="fill:#fff;stroke:#000;stroke-miterlimit:10;stroke-width:3px"/><path d="M434.949,442.268s2.2,3.82-1.076,6.533S431.579,439.688,434.949,442.268Z" style="fill:#fff;stroke:#000;stroke-miterlimit:10;stroke-width:3px"/><path d="M435.251,434.631s3.892-.754,3.235,3.685-3.494,4.463-5.291,3.934S431.518,433.963,435.251,434.631Z" style="fill:#fff;stroke:#000;stroke-miterlimit:10;stroke-width:3px"/><path d="M436.786,425.56s5.313-.569,3.221,4.62-7.426,5.322-7.44-.1S436.786,425.56,436.786,425.56Z" style="fill:#fff;stroke:#000;stroke-miterlimit:10;stroke-width:3px"/><path d="M417.815,360.324a8.707,8.707,0,0,0,3.836-.11Z"/><path d="M390.168,332.867c.17-.106.328-.21.484-.314a13.543,13.543,0,0,1,1.236-1.436Z"/><path d="M448.842,228.849c-2.789-3.75-2.148-14.7,1.5-17.085a18.056,18.056,0,0,0,2.15-.548,70.731,70.731,0,0,1,16.15.9,28.3,28.3,0,0,1,7.105,2.456s4.3,12.7-5.146,16.313c-6.457-1.005-13.332-2.813-20.428-2.132C449.719,228.766,449.293,228.831,448.842,228.849Z" style="fill:none;stroke:#000;stroke-miterlimit:10;stroke-width:3px"/><path d="M309.93,215.89c2.469-1.194,12.687-4.82,20.529-4.88a41.656,41.656,0,0,1,4.163.38l.033,0s12.134,12.456-2.123,19.36h0c-7.14,0-14.415-.143-20.326-.495C312.206,230.249,306.935,217.238,309.93,215.89Z" style="fill:none;stroke:#000;stroke-miterlimit:10;stroke-width:3px"/></g><g style="clip-path:url(#f)"><path d="M143.409,573.9a39.8,39.8,0,1,0-39.8-39.8,39.8,39.8,0,0,0,39.8,39.8" style="fill:#e0a226"/><circle cx="143.409" cy="534.098" r="39.8" style="fill:none;stroke:#231f20;stroke-width:3px"/><path d="M128.924,547.868q1.738-4.132,8.208-8.75a60.236,60.236,0,0,0,7.268-5.758,8.509,8.509,0,0,0,2.537-5.929,6.566,6.566,0,0,0-1.454-4.36,5.119,5.119,0,0,0-4.161-1.739q-3.705,0-5.045,2.765a13.709,13.709,0,0,0-.912,5.074h-7.9a19.947,19.947,0,0,1,1.911-8.522q3.253-6.185,11.556-6.186,6.562,0,10.442,3.635a12.558,12.558,0,0,1,3.88,9.619,13,13,0,0,1-2.742,8.151,27.273,27.273,0,0,1-5.911,5.273l-3.256,2.309q-3.056,2.167-4.181,3.136a9.18,9.18,0,0,0-1.9,2.251h18.042v7.154h-28.3A19.413,19.413,0,0,1,128.924,547.868Z" style="fill:#231f20"/><path d="M223.008,573.9a39.8,39.8,0,1,0-39.8-39.8,39.8,39.8,0,0,0,39.8,39.8" style="fill:#e0a226"/><circle cx="223.008" cy="534.098" r="39.8" style="fill:none;stroke:#231f20;stroke-width:3px"/><path d="M235.315,547.1h-4.674v8.893h-7.952V547.1h-16.36V540l15.192-25.082h9.121v25.823h4.674Zm-12.626-6.356v-17.8l-10.315,17.8Z" style="fill:#231f20"/></g></svg>