<svg id="a05e0688-635a-4156-af50-95607ce99de7" data-name="Layer 1" xmlns="http://www.w3.org/2000/svg" viewBox="0 0 105 94"><defs><style>.\39 8a9b480-1fe5-42cc-898d-57f14725502d{fill:#e0a326;stroke:#000;stroke-width:3px;}</style></defs><title>stop</title><circle class="98a9b480-1fe5-42cc-898d-57f14725502d" cx="51.83" cy="47.42" r="44.5"/><path d="M37.19,26.31v31l-9.92-5.91a3.4,3.4,0,0,0-4.64,1.06s-1.21,1.1,1.06,4.64c0,0,8.57,15.25,17.93,22,2.42,1.73,4.8,3,11.53,3,0,0,17,.21,17-16.68V29.69s0-3.17-3.8-3.17c0,0-3,0-3,2.74V50s-.76,1.65-1.6,0V23.56A3.52,3.52,0,0,0,58,20.4s-3.59,0-3.59,3V47.42s-.86,1.69-1.9,0V21.24a3.72,3.72,0,0,0-3.8-3.17s-3.17.42-3.17,3.17v28.5s-.89,1.19-1.61,0V26.1a3.31,3.31,0,0,0-3.38-2.73S37.19,23.12,37.19,26.31Z"/></svg>