<?xml version="1.0" encoding="iso-8859-1"?>
<!-- Generator: Adobe Illustrator 21.1.0, SVG Export Plug-In . SVG Version: 6.00 Build 0)  -->
<svg version="1.1" xmlns="http://www.w3.org/2000/svg" xmlns:xlink="http://www.w3.org/1999/xlink" x="0px" y="0px"
	 viewBox="0 0 92 92" style="enable-background:new 0 0 92 92;" xml:space="preserve">
<g id="Layer_3">
	<circle style="fill:#E0A326;stroke:#000000;stroke-width:3;" cx="46" cy="46" r="44.5"/>
	<path d="M31.36,24.89v31.03l-9.921-5.91c0,0-2.743-1.689-4.644,1.056c0,0-1.212,1.102,1.055,4.644c0,0,8.566,15.251,17.93,21.952
		c2.419,1.731,4.801,3.006,11.527,2.956c0,0,17.026,0.212,17.026-16.676V28.268c0,0,0-3.167-3.801-3.167
		c0,0-2.954-0.002-2.954,2.743v20.701c0,0-0.762,1.649-1.604-0.014V22.147c0,0-0.213-3.167-3.8-3.167c0,0-3.589,0.001-3.589,2.955
		v24.064c0,0-0.861,1.692-1.9,0V19.824c0,0-0.422-3.166-3.798-3.166c0,0-3.167,0.422-3.167,3.166V48.32c0,0-0.889,1.194-1.605,0
		V24.679c0,0-0.423-2.729-3.378-2.729C34.737,21.95,31.36,21.705,31.36,24.89z"/>
</g>
<g id="Layer_1">
</g>
</svg>
